<svg xmlns="http://www.w3.org/2000/svg" width="250mm" height="60mm" viewBox="0 0 250 60"><rect width="100%" height="100%" fill="#efe6d2"/><polyline points="0.00,1.80 250.00,1.80" fill="none" stroke="#1f2c4c" stroke-width="1.2" stroke-linecap="round" stroke-linejoin="round"/><polyline points="0.00,58.20 250.00,58.20" fill="none" stroke="#1f2c4c" stroke-width="1.2" stroke-linecap="round" stroke-linejoin="round"/><polygon points="2.50,3.50 3.90,4.90 2.50,6.30 1.10,4.90" fill="#1f2c4c"/><polygon points="7.50,3.50 8.90,4.90 7.50,6.30 6.10,4.90" fill="#b3332b"/><polygon points="12.50,3.50 13.90,4.90 12.50,6.30 11.10,4.90" fill="#1f2c4c"/><polygon points="17.50,3.50 18.90,4.90 17.50,6.30 16.10,4.90" fill="#b3332b"/><polygon points="22.50,3.50 23.90,4.90 22.50,6.30 21.10,4.90" fill="#1f2c4c"/><polygon points="27.50,3.50 28.90,4.90 27.50,6.30 26.10,4.90" fill="#b3332b"/><polygon points="32.50,3.50 33.90,4.90 32.50,6.30 31.10,4.90" fill="#1f2c4c"/><polygon points="37.50,3.50 38.90,4.90 37.50,6.30 36.10,4.90" fill="#b3332b"/><polygon points="42.50,3.50 43.90,4.90 42.50,6.30 41.10,4.90" fill="#1f2c4c"/><polygon points="47.50,3.50 48.90,4.90 47.50,6.30 46.10,4.90" fill="#b3332b"/><polygon points="52.50,3.50 53.90,4.90 52.50,6.30 51.10,4.90" fill="#1f2c4c"/><polygon points="57.50,3.50 58.90,4.90 57.50,6.30 56.10,4.90" fill="#b3332b"/><polygon points="62.50,3.50 63.90,4.90 62.50,6.30 61.10,4.90" fill="#1f2c4c"/><polygon points="67.50,3.50 68.90,4.90 67.50,6.30 66.10,4.90" fill="#b3332b"/><polygon points="72.50,3.50 73.90,4.90 72.50,6.30 71.10,4.90" fill="#1f2c4c"/><polygon points="77.50,3.50 78.90,4.90 77.50,6.30 76.10,4.90" fill="#b3332b"/><polygon points="82.50,3.50 83.90,4.90 82.50,6.30 81.10,4.90" fill="#1f2c4c"/><polygon points="87.50,3.50 88.90,4.90 87.50,6.30 86.10,4.90" fill="#b3332b"/><polygon points="92.50,3.50 93.90,4.90 92.50,6.30 91.10,4.90" fill="#1f2c4c"/><polygon points="97.50,3.50 98.90,4.90 97.50,6.30 96.10,4.90" fill="#b3332b"/><polygon points="102.50,3.50 103.90,4.90 102.50,6.30 101.10,4.90" fill="#1f2c4c"/><polygon points="107.50,3.50 108.90,4.90 107.50,6.30 106.10,4.90" fill="#b3332b"/><polygon points="112.50,3.50 113.90,4.90 112.50,6.30 111.10,4.90" fill="#1f2c4c"/><polygon points="117.50,3.50 118.90,4.90 117.50,6.30 116.10,4.90" fill="#b3332b"/><polygon points="122.50,3.50 123.90,4.90 122.50,6.30 121.10,4.90" fill="#1f2c4c"/><polygon points="127.50,3.50 128.90,4.90 127.50,6.30 126.10,4.90" fill="#b3332b"/><polygon points="132.50,3.50 133.90,4.90 132.50,6.30 131.10,4.90" fill="#1f2c4c"/><polygon points="137.50,3.50 138.90,4.90 137.50,6.30 136.10,4.90" fill="#b3332b"/><polygon points="142.50,3.50 143.90,4.90 142.50,6.30 141.10,4.90" fill="#1f2c4c"/><polygon points="147.50,3.50 148.90,4.90 147.50,6.30 146.10,4.90" fill="#b3332b"/><polygon points="152.50,3.50 153.90,4.90 152.50,6.30 151.10,4.90" fill="#1f2c4c"/><polygon points="157.50,3.50 158.90,4.90 157.50,6.30 156.10,4.90" fill="#b3332b"/><polygon points="162.50,3.50 163.90,4.90 162.50,6.30 161.10,4.90" fill="#1f2c4c"/><polygon points="167.50,3.50 168.90,4.90 167.50,6.30 166.10,4.90" fill="#b3332b"/><polygon points="172.50,3.50 173.90,4.90 172.50,6.30 171.10,4.90" fill="#1f2c4c"/><polygon points="177.50,3.50 178.90,4.90 177.50,6.30 176.10,4.90" fill="#b3332b"/><polygon points="182.50,3.50 183.90,4.90 182.50,6.30 181.10,4.90" fill="#1f2c4c"/><polygon points="187.50,3.50 188.90,4.90 187.50,6.30 186.10,4.90" fill="#b3332b"/><polygon points="192.50,3.50 193.90,4.90 192.50,6.30 191.10,4.90" fill="#1f2c4c"/><polygon points="197.50,3.50 198.90,4.90 197.50,6.30 196.10,4.90" fill="#b3332b"/><polygon points="202.50,3.50 203.90,4.90 202.50,6.30 201.10,4.90" fill="#1f2c4c"/><polygon points="207.50,3.50 208.90,4.90 207.50,6.30 206.10,4.90" fill="#b3332b"/><polygon points="212.50,3.50 213.90,4.90 212.50,6.30 211.10,4.90" fill="#1f2c4c"/><polygon points="217.50,3.50 218.90,4.90 217.50,6.30 216.10,4.90" fill="#b3332b"/><polygon points="222.50,3.50 223.90,4.90 222.50,6.30 221.10,4.90" fill="#1f2c4c"/><polygon points="227.50,3.50 228.90,4.90 227.50,6.30 226.10,4.90" fill="#b3332b"/><polygon points="232.50,3.50 233.90,4.90 232.50,6.30 231.10,4.90" fill="#1f2c4c"/><polygon points="237.50,3.50 238.90,4.90 237.50,6.30 236.10,4.90" fill="#b3332b"/><polygon points="242.50,3.50 243.90,4.90 242.50,6.30 241.10,4.90" fill="#1f2c4c"/><polygon points="247.50,3.50 248.90,4.90 247.50,6.30 246.10,4.90" fill="#b3332b"/><polygon points="2.50,53.70 3.90,55.10 2.50,56.50 1.10,55.10" fill="#1f2c4c"/><polygon points="7.50,53.70 8.90,55.10 7.50,56.50 6.10,55.10" fill="#b3332b"/><polygon points="12.50,53.70 13.90,55.10 12.50,56.50 11.10,55.10" fill="#1f2c4c"/><polygon points="17.50,53.70 18.90,55.10 17.50,56.50 16.10,55.10" fill="#b3332b"/><polygon points="22.50,53.70 23.90,55.10 22.50,56.50 21.10,55.10" fill="#1f2c4c"/><polygon points="27.50,53.70 28.90,55.10 27.50,56.50 26.10,55.10" fill="#b3332b"/><polygon points="32.50,53.70 33.90,55.10 32.50,56.50 31.10,55.10" fill="#1f2c4c"/><polygon points="37.50,53.70 38.90,55.10 37.50,56.50 36.10,55.10" fill="#b3332b"/><polygon points="42.50,53.70 43.90,55.10 42.50,56.50 41.10,55.10" fill="#1f2c4c"/><polygon points="47.50,53.70 48.90,55.10 47.50,56.50 46.10,55.10" fill="#b3332b"/><polygon points="52.50,53.70 53.90,55.10 52.50,56.50 51.10,55.10" fill="#1f2c4c"/><polygon points="57.50,53.70 58.90,55.10 57.50,56.50 56.10,55.10" fill="#b3332b"/><polygon points="62.50,53.70 63.90,55.10 62.50,56.50 61.10,55.10" fill="#1f2c4c"/><polygon points="67.50,53.70 68.90,55.10 67.50,56.50 66.10,55.10" fill="#b3332b"/><polygon points="72.50,53.70 73.90,55.10 72.50,56.50 71.10,55.10" fill="#1f2c4c"/><polygon points="77.50,53.70 78.90,55.10 77.50,56.50 76.10,55.10" fill="#b3332b"/><polygon points="82.50,53.70 83.90,55.10 82.50,56.50 81.10,55.10" fill="#1f2c4c"/><polygon points="87.50,53.70 88.90,55.10 87.50,56.50 86.10,55.10" fill="#b3332b"/><polygon points="92.50,53.70 93.90,55.10 92.50,56.50 91.10,55.10" fill="#1f2c4c"/><polygon points="97.50,53.70 98.90,55.10 97.50,56.50 96.10,55.10" fill="#b3332b"/><polygon points="102.50,53.70 103.90,55.10 102.50,56.50 101.10,55.10" fill="#1f2c4c"/><polygon points="107.50,53.70 108.90,55.10 107.50,56.50 106.10,55.10" fill="#b3332b"/><polygon points="112.50,53.70 113.90,55.10 112.50,56.50 111.10,55.10" fill="#1f2c4c"/><polygon points="117.50,53.70 118.90,55.10 117.50,56.50 116.10,55.10" fill="#b3332b"/><polygon points="122.50,53.70 123.90,55.10 122.50,56.50 121.10,55.10" fill="#1f2c4c"/><polygon points="127.50,53.70 128.90,55.10 127.50,56.50 126.10,55.10" fill="#b3332b"/><polygon points="132.50,53.70 133.90,55.10 132.50,56.50 131.10,55.10" fill="#1f2c4c"/><polygon points="137.50,53.70 138.90,55.10 137.50,56.50 136.10,55.10" fill="#b3332b"/><polygon points="142.50,53.70 143.90,55.10 142.50,56.50 141.10,55.10" fill="#1f2c4c"/><polygon points="147.50,53.70 148.90,55.10 147.50,56.50 146.10,55.10" fill="#b3332b"/><polygon points="152.50,53.70 153.90,55.10 152.50,56.50 151.10,55.10" fill="#1f2c4c"/><polygon points="157.50,53.70 158.90,55.10 157.50,56.50 156.10,55.10" fill="#b3332b"/><polygon points="162.50,53.70 163.90,55.10 162.50,56.50 161.10,55.10" fill="#1f2c4c"/><polygon points="167.50,53.70 168.90,55.10 167.50,56.50 166.10,55.10" fill="#b3332b"/><polygon points="172.50,53.70 173.90,55.10 172.50,56.50 171.10,55.10" fill="#1f2c4c"/><polygon points="177.50,53.70 178.90,55.10 177.50,56.50 176.10,55.10" fill="#b3332b"/><polygon points="182.50,53.70 183.90,55.10 182.50,56.50 181.10,55.10" fill="#1f2c4c"/><polygon points="187.50,53.70 188.90,55.10 187.50,56.50 186.10,55.10" fill="#b3332b"/><polygon points="192.50,53.70 193.90,55.10 192.50,56.50 191.10,55.10" fill="#1f2c4c"/><polygon points="197.50,53.70 198.90,55.10 197.50,56.50 196.10,55.10" fill="#b3332b"/><polygon points="202.50,53.70 203.90,55.10 202.50,56.50 201.10,55.10" fill="#1f2c4c"/><polygon points="207.50,53.70 208.90,55.10 207.50,56.50 206.10,55.10" fill="#b3332b"/><polygon points="212.50,53.70 213.90,55.10 212.50,56.50 211.10,55.10" fill="#1f2c4c"/><polygon points="217.50,53.70 218.90,55.10 217.50,56.50 216.10,55.10" fill="#b3332b"/><polygon points="222.50,53.70 223.90,55.10 222.50,56.50 221.10,55.10" fill="#1f2c4c"/><polygon points="227.50,53.70 228.90,55.10 227.50,56.50 226.10,55.10" fill="#b3332b"/><polygon points="232.50,53.70 233.90,55.10 232.50,56.50 231.10,55.10" fill="#1f2c4c"/><polygon points="237.50,53.70 238.90,55.10 237.50,56.50 236.10,55.10" fill="#b3332b"/><polygon points="242.50,53.70 243.90,55.10 242.50,56.50 241.10,55.10" fill="#1f2c4c"/><polygon points="247.50,53.70 248.90,55.10 247.50,56.50 246.10,55.10" fill="#b3332b"/><polyline points="62.50,10.20 82.30,30.00" fill="none" stroke="#1f2c4c" stroke-width="1.9800000000000002" stroke-linecap="round" stroke-linejoin="round"/><polyline points="82.30,30.00 62.50,49.80" fill="none" stroke="#1f2c4c" stroke-width="1.9800000000000002" stroke-linecap="round" stroke-linejoin="round"/><polyline points="62.50,49.80 42.70,30.00" fill="none" stroke="#1f2c4c" stroke-width="1.9800000000000002" stroke-linecap="round" stroke-linejoin="round"/><polyline points="42.70,30.00 62.50,10.20" fill="none" stroke="#1f2c4c" stroke-width="1.9800000000000002" stroke-linecap="round" stroke-linejoin="round"/><polygon points="62.50,30.00 67.25,31.81 72.00,30.00 67.25,28.19" fill="#b3332b"/><polygon points="62.50,30.00 64.58,34.64 69.22,36.72 67.14,32.08" fill="#2b8796"/><polygon points="62.50,30.00 60.69,34.75 62.50,39.50 64.31,34.75" fill="#b3332b"/><polygon points="62.50,30.00 57.86,32.08 55.78,36.72 60.42,34.64" fill="#2b8796"/><polygon points="62.50,30.00 57.75,28.19 53.00,30.00 57.75,31.81" fill="#b3332b"/><polygon points="62.50,30.00 60.42,25.36 55.78,23.28 57.86,27.92" fill="#2b8796"/><polygon points="62.50,30.00 64.31,25.25 62.50,20.50 60.69,25.25" fill="#b3332b"/><polygon points="62.50,30.00 67.14,27.92 69.22,23.28 64.58,25.36" fill="#2b8796"/><polygon points="62.50,28.38 64.12,30.00 62.50,31.62 60.88,30.00" fill="#d39b35"/><polygon points="28.81,30.00 34.26,32.07 39.70,30.00 34.26,27.93" fill="#b3332b"/><polygon points="28.81,30.00 31.20,35.31 36.51,37.70 34.12,32.39" fill="#2b8796"/><polygon points="28.81,30.00 26.74,35.45 28.81,40.89 30.88,35.45" fill="#b3332b"/><polygon points="28.81,30.00 23.50,32.39 21.11,37.70 26.42,35.31" fill="#2b8796"/><polygon points="28.81,30.00 23.37,27.93 17.92,30.00 23.37,32.07" fill="#b3332b"/><polygon points="28.81,30.00 26.42,24.69 21.11,22.30 23.50,27.61" fill="#2b8796"/><polygon points="28.81,30.00 30.88,24.55 28.81,19.11 26.74,24.55" fill="#b3332b"/><polygon points="28.81,30.00 34.12,27.61 36.51,22.30 31.20,24.69" fill="#2b8796"/><polygon points="28.81,28.15 30.66,30.00 28.81,31.85 26.96,30.00" fill="#d39b35"/><polygon points="96.19,30.00 101.63,32.07 107.08,30.00 101.63,27.93" fill="#b3332b"/><polygon points="96.19,30.00 98.58,35.31 103.89,37.70 101.50,32.39" fill="#2b8796"/><polygon points="96.19,30.00 94.12,35.45 96.19,40.89 98.26,35.45" fill="#b3332b"/><polygon points="96.19,30.00 90.88,32.39 88.49,37.70 93.80,35.31" fill="#2b8796"/><polygon points="96.19,30.00 90.75,27.93 85.30,30.00 90.75,32.07" fill="#b3332b"/><polygon points="96.19,30.00 93.80,24.69 88.49,22.30 90.88,27.61" fill="#2b8796"/><polygon points="96.19,30.00 98.26,24.55 96.19,19.11 94.12,24.55" fill="#b3332b"/><polygon points="96.19,30.00 101.50,27.61 103.89,22.30 98.58,24.69" fill="#2b8796"/><polygon points="96.19,28.15 98.04,30.00 96.19,31.85 94.34,30.00" fill="#d39b35"/><polygon points="0.00,36.00 0.81,35.00 1.38,34.00 1.82,33.00 2.14,32.00 2.33,31.00 2.40,30.00 2.33,29.00 2.14,28.00 1.82,27.00 1.38,26.00 0.81,25.00 0.00,24.00 -0.81,25.00 -1.38,26.00 -1.82,27.00 -2.14,28.00 -2.33,29.00 -2.40,30.00 -2.33,31.00 -2.14,32.00 -1.82,33.00 -1.38,34.00 -0.81,35.00" fill="#1f2c4c"/><polygon points="0.00,36.00 0.06,34.99 -0.01,34.07 -0.13,33.18 -0.31,32.33 -0.54,31.52 -0.83,30.75 -1.18,30.02 -1.59,29.33 -2.05,28.68 -2.56,28.06 -3.13,27.48 -3.84,26.99 -4.14,28.17 -4.27,29.23 -4.30,30.22 -4.23,31.14 -4.07,32.00 -3.80,32.78 -3.43,33.50 -2.95,34.14 -2.38,34.72 -1.71,35.23 -0.94,35.68" fill="#b3332b"/><polygon points="0.00,36.00 0.94,35.68 1.71,35.23 2.38,34.72 2.95,34.14 3.43,33.50 3.80,32.78 4.07,32.00 4.23,31.14 4.30,30.22 4.27,29.23 4.14,28.17 3.84,26.99 3.13,27.48 2.56,28.06 2.05,28.68 1.59,29.33 1.18,30.02 0.83,30.75 0.54,31.52 0.31,32.33 0.13,33.18 0.01,34.07 -0.06,34.99" fill="#b3332b"/><polyline points="187.50,10.20 207.30,30.00" fill="none" stroke="#1f2c4c" stroke-width="1.9800000000000002" stroke-linecap="round" stroke-linejoin="round"/><polyline points="207.30,30.00 187.50,49.80" fill="none" stroke="#1f2c4c" stroke-width="1.9800000000000002" stroke-linecap="round" stroke-linejoin="round"/><polyline points="187.50,49.80 167.70,30.00" fill="none" stroke="#1f2c4c" stroke-width="1.9800000000000002" stroke-linecap="round" stroke-linejoin="round"/><polyline points="167.70,30.00 187.50,10.20" fill="none" stroke="#1f2c4c" stroke-width="1.9800000000000002" stroke-linecap="round" stroke-linejoin="round"/><polygon points="187.50,30.00 192.25,31.81 197.00,30.00 192.25,28.19" fill="#b3332b"/><polygon points="187.50,30.00 189.58,34.64 194.22,36.72 192.14,32.08" fill="#2b8796"/><polygon points="187.50,30.00 185.69,34.75 187.50,39.50 189.31,34.75" fill="#b3332b"/><polygon points="187.50,30.00 182.86,32.08 180.78,36.72 185.42,34.64" fill="#2b8796"/><polygon points="187.50,30.00 182.75,28.19 178.00,30.00 182.75,31.81" fill="#b3332b"/><polygon points="187.50,30.00 185.42,25.36 180.78,23.28 182.86,27.92" fill="#2b8796"/><polygon points="187.50,30.00 189.31,25.25 187.50,20.50 185.69,25.25" fill="#b3332b"/><polygon points="187.50,30.00 192.14,27.92 194.22,23.28 189.58,25.36" fill="#2b8796"/><polygon points="187.50,28.38 189.12,30.00 187.50,31.62 185.88,30.00" fill="#d39b35"/><polygon points="153.81,30.00 159.26,32.07 164.70,30.00 159.26,27.93" fill="#b3332b"/><polygon points="153.81,30.00 156.20,35.31 161.51,37.70 159.12,32.39" fill="#2b8796"/><polygon points="153.81,30.00 151.74,35.45 153.81,40.89 155.88,35.45" fill="#b3332b"/><polygon points="153.81,30.00 148.50,32.39 146.11,37.70 151.42,35.31" fill="#2b8796"/><polygon points="153.81,30.00 148.37,27.93 142.92,30.00 148.37,32.07" fill="#b3332b"/><polygon points="153.81,30.00 151.42,24.69 146.11,22.30 148.50,27.61" fill="#2b8796"/><polygon points="153.81,30.00 155.88,24.55 153.81,19.11 151.74,24.55" fill="#b3332b"/><polygon points="153.81,30.00 159.12,27.61 161.51,22.30 156.20,24.69" fill="#2b8796"/><polygon points="153.81,28.15 155.66,30.00 153.81,31.85 151.96,30.00" fill="#d39b35"/><polygon points="221.19,30.00 226.64,32.07 232.08,30.00 226.64,27.93" fill="#b3332b"/><polygon points="221.19,30.00 223.58,35.31 228.89,37.70 226.50,32.39" fill="#2b8796"/><polygon points="221.19,30.00 219.12,35.45 221.19,40.89 223.26,35.45" fill="#b3332b"/><polygon points="221.19,30.00 215.88,32.39 213.49,37.70 218.80,35.31" fill="#2b8796"/><polygon points="221.19,30.00 215.75,27.93 210.30,30.00 215.75,32.07" fill="#b3332b"/><polygon points="221.19,30.00 218.80,24.69 213.49,22.30 215.88,27.61" fill="#2b8796"/><polygon points="221.19,30.00 223.26,24.55 221.19,19.11 219.12,24.55" fill="#b3332b"/><polygon points="221.19,30.00 226.50,27.61 228.89,22.30 223.58,24.69" fill="#2b8796"/><polygon points="221.19,28.15 223.04,30.00 221.19,31.85 219.34,30.00" fill="#d39b35"/><polygon points="125.00,36.00 125.81,35.00 126.38,34.00 126.82,33.00 127.14,32.00 127.33,31.00 127.40,30.00 127.33,29.00 127.14,28.00 126.82,27.00 126.38,26.00 125.81,25.00 125.00,24.00 124.19,25.00 123.62,26.00 123.18,27.00 122.86,28.00 122.67,29.00 122.60,30.00 122.67,31.00 122.86,32.00 123.18,33.00 123.62,34.00 124.19,35.00" fill="#1f2c4c"/><polygon points="125.00,36.00 125.06,34.99 124.99,34.07 124.87,33.18 124.69,32.33 124.46,31.52 124.17,30.75 123.82,30.02 123.41,29.33 122.95,28.68 122.44,28.06 121.87,27.48 121.16,26.99 120.86,28.17 120.73,29.23 120.70,30.22 120.77,31.14 120.93,32.00 121.20,32.78 121.57,33.50 122.05,34.14 122.62,34.72 123.29,35.23 124.06,35.68" fill="#b3332b"/><polygon points="125.00,36.00 125.94,35.68 126.71,35.23 127.38,34.72 127.95,34.14 128.43,33.50 128.80,32.78 129.07,32.00 129.23,31.14 129.30,30.22 129.27,29.23 129.14,28.17 128.84,26.99 128.13,27.48 127.56,28.06 127.05,28.68 126.59,29.33 126.18,30.02 125.83,30.75 125.54,31.52 125.31,32.33 125.13,33.18 125.01,34.07 124.94,34.99" fill="#b3332b"/></svg>