<svg xmlns="http://www.w3.org/2000/svg" viewBox="0 0 90 75"><path d="M 69 38 L 68 39 L 65 39 L 64 40 L 61 40 L 60 41 L 58 41 L 57 42 L 54 42 L 53 43 L 50 43 L 49 44 L 46 44 L 45 45 L 42 45 L 41 46 L 38 46 L 37 47 L 34 47 L 33 48 L 30 48 L 29 49 L 26 49 L 25 50 L 22 50 L 21 51 L 18 51 L 17 52 L 14 52 L 13 51 L 12 51 L 12 49 L 13 48 L 16 48 L 17 47 L 20 47 L 21 46 L 24 46 L 25 45 L 28 45 L 29 44 L 32 44 L 33 43 L 36 43 L 37 42 L 40 42 L 41 41 L 44 41 L 45 40 L 48 40 L 49 39 L 52 39 L 53 38 L 56 38 L 57 37 L 60 37 L 61 36 L 64 36 L 65 35 L 68 35 L 69 34 L 72 34 L 73 35 L 76 35 L 77 36 L 80 36 L 81 37 L 84 37 L 85 38 L 88 38 L 89 39 L 89 42 L 88 42 L 87 41 L 84 41 L 83 40 L 80 40 L 79 39 L 76 39 L 75 38 Z" fill="currentColor"/><path d="M 68 28 L 67 29 L 64 29 L 63 30 L 60 30 L 59 31 L 56 31 L 55 32 L 52 32 L 51 33 L 48 33 L 47 34 L 44 34 L 43 35 L 40 35 L 39 36 L 36 36 L 35 37 L 32 37 L 31 38 L 28 38 L 27 39 L 24 39 L 23 40 L 20 40 L 19 41 L 16 41 L 15 42 L 12 42 L 12 39 L 13 38 L 16 38 L 17 37 L 20 37 L 21 36 L 24 36 L 25 35 L 28 35 L 29 34 L 32 34 L 33 33 L 36 33 L 37 32 L 40 32 L 41 31 L 44 31 L 45 30 L 48 30 L 49 29 L 52 29 L 53 28 L 56 28 L 57 27 L 60 27 L 61 26 L 64 26 L 65 25 L 68 25 L 69 24 L 72 24 L 73 25 L 76 25 L 77 26 L 80 26 L 81 27 L 84 27 L 85 28 L 88 28 L 89 29 L 89 32 L 88 32 L 87 31 L 84 31 L 83 30 L 80 30 L 79 29 L 76 29 L 75 28 L 72 28 L 71 27 Z" fill="currentColor"/></svg>