<svg xmlns="http://www.w3.org/2000/svg" width="63.2mm" height="100.5mm" viewBox="0 0 63.23 100.50"><rect width="100%" height="100%" fill="#efe9dc"/><path d="M23.56 76.42L23.56 76.42L22.92 76.14L23.56 76.42L22.92 76.14L23.56 76.42L21.74 75.62L20.08 74.74L18.48 73.74L16.96 72.63L15.51 71.42L14.11 70.01L12.87 68.58L11.71 67.09L10.64 65.52L9.64 63.80L8.80 62.10L8.06 60.36L7.40 58.58L6.84 56.67L6.42 54.81L6.09 52.94L5.85 51.05L5.75 49.07L5.75 47.17L5.84 45.27L6.04 43.29L6.37 41.41L6.79 39.56L7.30 37.73L7.96 35.85L8.71 34.11L9.55 32.41L10.47 30.75L11.56 29.09L12.72 27.59L13.96 26.16L15.29 24.82L16.69 23.56L18.29 22.38L19.88 21.37L21.54 20.49L23.26 19.72L25.03 19.09L26.95 18.60L28.81 18.30L30.68 18.15L32.55 18.15L34.42 18.30L36.27 18.60L38.20 19.09L39.97 19.72L41.68 20.49L43.34 21.37L44.93 22.38L46.53 23.56L47.94 24.82L49.26 26.16L50.51 27.59L51.66 29.09L52.75 30.75L53.68 32.41L54.52 34.11L55.27 35.85L55.92 37.73L56.43 39.56L56.85 41.41L57.18 43.29L57.39 45.27L57.48 47.17L57.48 49.07L57.37 51.05L57.13 52.94L56.80 54.81L56.39 56.67L55.83 58.58L55.17 60.36L54.42 62.10L53.58 63.80L52.58 65.52L51.51 67.09L50.36 68.58L49.12 70.01L47.71 71.42L46.26 72.63L44.74 73.74L43.15 74.74L41.49 75.62L39.66 76.42L40.55 78.43L42.37 77.64L44.22 76.66L45.99 75.55L47.67 74.32L49.27 72.97L50.67 71.56L52.05 70.00L53.32 68.35L54.48 66.63L55.48 64.91L56.41 63.05L57.22 61.14L57.94 59.19L58.50 57.29L58.96 55.27L59.31 53.22L59.57 51.17L59.67 49.18L59.68 47.11L59.57 45.04L59.37 43.07L59.02 41.02L58.56 39.00L58.00 37.01L57.34 35.13L56.53 33.22L55.61 31.36L54.59 29.55L53.50 27.88L52.24 26.23L50.87 24.66L49.40 23.18L47.84 21.80L46.24 20.61L44.48 19.49L42.64 18.50L40.72 17.66L38.75 16.96L36.82 16.47L34.75 16.12L32.66 15.95L30.56 15.95L28.47 16.12L26.41 16.47L24.48 16.96L22.50 17.66L20.59 18.50L18.75 19.49L16.98 20.61L15.38 21.80L13.82 23.18L12.35 24.66L10.99 26.23L9.72 27.88L8.63 29.55L7.61 31.36L6.69 33.22L5.88 35.13L5.23 37.01L4.66 39.00L4.21 41.02L3.85 43.07L3.65 45.04L3.55 47.11L3.55 49.18L3.65 51.17L3.91 53.22L4.27 55.27L4.73 57.29L5.29 59.19L6.00 61.14L6.82 63.05L7.74 64.91L8.74 66.63L9.91 68.35L11.18 70.00L12.55 71.56L13.96 72.97L15.55 74.32L17.24 75.55L19.01 76.66L20.86 77.64L22.68 78.43L23.56 76.42L20.86 77.64L20.08 74.74L17.24 75.55L16.96 72.63L13.96 72.97L14.11 70.01L11.18 70.00L11.71 67.09L8.74 66.63L9.64 63.80L6.82 63.05L8.06 60.36L5.29 59.19L6.84 56.67L4.27 55.27L6.09 52.94L3.65 51.17L5.75 49.07L3.55 47.11L5.84 45.27L3.85 43.07L6.37 41.41L4.66 39.00L7.30 37.73L5.88 35.13L8.71 34.11L7.61 31.36L10.47 30.75L9.72 27.88L12.72 27.59L12.35 24.66L15.29 24.82L15.38 21.80L18.29 22.38L18.75 19.49L21.54 20.49L22.50 17.66L25.03 19.09L26.41 16.47L28.81 18.30L30.56 15.95L32.55 18.15L34.75 16.12L36.27 18.60L38.75 16.96L39.97 19.72L42.64 18.50L43.34 21.37L46.24 20.61L46.53 23.56L49.40 23.18L49.26 26.16L52.24 26.23L51.66 29.09L54.59 29.55L53.68 32.41L56.53 33.22L55.27 35.85L58.00 37.01L56.43 39.56L59.02 41.02L57.18 43.29L59.57 45.04L57.48 47.17L59.67 49.18L57.37 51.05L59.31 53.22L56.80 54.81L58.50 57.29L55.83 58.58L57.22 61.14L54.42 62.10L55.48 64.91L52.58 65.52L53.32 68.35L50.36 68.58L50.67 71.56L47.71 71.42L47.67 74.32L44.74 73.74L44.22 76.66L41.49 75.62L40.55 78.43L39.45 75.94L41.12 78.75L40.19 75.62L41.86 78.43L40.92 75.30L42.59 78.11L41.65 74.98L43.44 77.69L42.21 74.66L44.14 77.30L42.91 74.27L44.84 76.91L43.61 73.88L45.65 76.42L44.14 73.52L46.31 75.97L44.79 73.06L46.97 75.51L45.45 72.61L47.73 74.95L45.96 72.20L48.35 74.44L46.57 71.69L48.96 73.93L47.18 71.18L49.67 73.31L47.66 70.73L50.24 72.74L48.22 70.16L50.80 72.18L48.79 69.60L51.37 71.61L49.23 69.11L51.98 70.90L49.74 68.50L52.49 70.28L50.26 67.89L53.00 69.67L50.67 67.38L53.56 68.91L51.13 66.72L54.02 68.26L51.59 66.07L54.48 67.61L51.97 65.53L54.98 66.82L52.37 64.84L55.38 66.13L52.78 64.15L55.79 65.44L53.18 63.46L56.24 64.62L53.48 62.86L56.58 63.90L53.82 62.14L56.93 63.18L54.17 61.42L57.27 62.46L54.43 60.81L57.61 61.59L54.72 60.06L57.90 60.85L55.00 59.32L58.18 60.10L55.25 58.69L58.48 59.22L55.47 57.92L58.70 58.46L55.70 57.16L58.93 57.69L55.92 56.39L59.17 56.80L56.07 55.74L59.34 56.01L56.24 54.95L59.50 55.23L56.40 54.17L59.67 54.45L56.53 53.51L59.80 53.54L56.63 52.72L59.91 52.74L56.74 51.93L60.01 51.95L56.84 51.14L60.10 51.03L56.88 50.46L60.14 50.23L56.92 49.66L60.19 49.44L56.96 48.87L60.23 48.64L56.98 48.19L60.22 47.72L56.96 47.39L60.20 46.92L56.94 46.60L60.18 46.12L56.92 45.92L60.12 45.20L56.84 45.13L60.04 44.40L56.76 44.33L59.96 43.61L56.68 43.54L59.85 42.69L56.58 42.87L59.71 41.90L56.44 42.08L59.57 41.11L56.30 41.30L59.43 40.33L56.17 40.64L59.21 39.43L55.97 39.87L59.01 38.66L55.77 39.09L58.81 37.88L55.56 38.32L58.55 36.99L55.35 37.68L58.29 36.24L55.09 36.93L58.02 35.48L54.82 36.17L57.76 34.73L54.58 35.55L57.39 33.88L54.26 34.82L57.07 33.14L53.94 34.09L56.75 32.41L53.67 33.48L56.33 31.58L53.28 32.78L55.95 30.88L52.90 32.08L55.57 30.18L52.52 31.37L55.10 29.37L52.16 30.82L54.66 28.70L51.73 30.15L54.23 28.03L51.29 29.48L53.70 27.25L50.90 28.94L53.21 26.62L50.41 28.32L52.72 26.00L49.91 27.69L52.22 25.37L49.50 27.18L51.60 24.67L48.95 26.60L51.05 24.08L48.40 26.01L50.50 23.50L47.96 25.54L49.82 22.85L47.36 25.01L49.23 22.32L46.76 24.47L48.63 21.78L46.17 23.94L47.90 21.19L45.64 23.56L47.26 20.71L45.00 23.08L46.61 20.23L44.36 22.61L45.83 19.70L43.81 22.27L45.15 19.28L43.12 21.86L44.46 18.87L42.44 21.44L43.63 18.40L41.86 21.16L42.91 18.05L41.14 20.81L42.19 17.71L40.42 20.46L41.32 17.32L39.83 20.23L40.57 17.04L39.08 19.96L39.82 16.77L38.33 19.68L38.91 16.46L37.71 19.51L38.13 16.26L36.94 19.31L37.36 16.06L36.16 19.11L36.42 15.85L35.54 19.00L35.63 15.73L34.75 18.88L34.84 15.61L33.96 18.76L33.89 15.49L33.33 18.71L33.09 15.45L32.53 18.67L32.29 15.41L31.73 18.63L31.33 15.39L31.10 18.65L30.53 15.43L30.30 18.69L29.73 15.47L29.50 18.73L28.78 15.55L28.87 18.82L27.99 15.67L28.08 18.94L27.20 15.79L27.29 19.06L26.25 15.96L26.67 19.21L25.48 16.16L25.90 19.41L24.70 16.36L25.13 19.61L23.78 16.63L24.52 19.82L23.03 16.90L23.77 20.09L22.28 17.18L23.02 20.37L21.39 17.53L22.44 20.64L20.67 17.88L21.72 20.98L19.95 18.23L21.00 21.33L19.10 18.66L20.44 21.65L18.42 19.08L19.76 22.06L17.74 19.49L19.08 22.48L16.93 20.00L18.55 22.84L16.29 20.47L17.90 23.32L15.65 20.95L17.26 23.80L14.89 21.52L16.76 24.21L14.30 22.05L16.16 24.74L13.70 22.58L15.57 25.27L13.10 23.12L15.09 25.72L12.45 23.79L14.55 26.31L11.90 24.38L14.00 26.89L11.36 24.96L13.56 27.37L10.75 25.68L13.06 28.00L10.26 26.31L12.57 28.63L9.77 26.94L12.08 29.26L9.22 27.70L11.72 29.81L8.78 28.37L11.28 30.48L8.34 29.03L10.84 31.15L7.85 29.82L10.51 31.73L7.46 30.53L10.13 32.43L7.08 31.23L9.75 33.13L6.70 31.93L9.45 33.72L6.31 32.78L9.13 34.46L5.99 33.51L8.80 35.19L5.67 34.24L8.53 35.80L5.33 35.11L8.27 36.55L5.07 35.86L8.01 37.31L4.81 36.62L7.74 38.06L4.52 37.50L7.56 38.71L4.31 38.27L7.36 39.48L4.11 39.04L7.15 40.25L3.91 39.81L7.00 40.91L3.73 40.72L6.86 41.69L3.59 41.51L6.71 42.48L3.44 42.29L6.57 43.26L3.31 43.21L6.50 43.93L3.23 44.00L6.42 44.73L3.15 44.80L6.34 45.52L3.07 45.59L6.30 46.20L3.04 46.52L6.28 46.99L3.02 47.32L6.26 47.79L3.00 48.11L6.24 48.47L3.02 49.04L6.28 49.27L3.06 49.84L6.33 50.06L3.10 50.63L6.37 50.86L3.16 51.56L6.44 51.53L3.27 52.35L6.54 52.32L3.37 53.14L6.64 53.12L3.47 53.93L6.74 53.78L3.64 54.84L6.90 54.56L3.81 55.62L7.07 55.35L3.97 56.41L7.23 56.13L4.19 57.31L7.42 56.77L4.41 58.07L7.64 57.54L4.64 58.84L7.87 58.31L4.86 59.61L8.08 58.94L5.18 60.48L8.36 59.69L5.47 61.22L8.65 60.44L5.75 61.97L8.89 61.06L6.13 62.82L9.23 61.78L6.47 63.54L9.58 62.50L6.82 64.26L9.92 63.22L7.24 65.09L10.25 63.80L7.64 65.78L10.65 64.49L8.04 66.47L11.05 65.18L8.44 67.16L11.41 65.74L8.98 67.93L11.87 66.40L9.43 68.59L12.33 67.05L9.89 69.24L12.71 67.58L10.48 69.98L13.23 68.20L10.99 70.59L13.74 68.81L11.50 71.20L14.16 69.31L12.14 71.89L14.72 69.88L12.70 72.46L15.29 70.44L13.27 73.02L15.85 71.01L13.96 73.67L16.35 71.43L14.57 74.18L16.96 71.94L15.19 74.69L17.58 72.46L15.93 75.29L18.10 72.84L16.59 75.74L18.76 73.29L17.24 76.19L19.42 73.74L18.04 76.72L19.97 74.08L18.73 77.11L20.67 74.46L19.43 77.50L21.36 74.85L20.27 77.95L21.94 75.14L21.00 78.27L22.67 75.46L21.74 78.59L23.40 75.78L22.47 78.92L22.67 78.24L22.47 78.92L22.67 78.24L22.47 78.92" fill="none" stroke="#a393c5" stroke-width="0.3" stroke-linejoin="round"/><path d="M15.29 67.50L15.29 67.50L15.49 66.83L15.29 67.50L15.49 66.83L15.29 67.50L16.01 65.16L16.73 62.81L17.45 60.47L18.17 58.12L18.89 55.78L19.60 53.43L20.32 51.09L21.04 48.74L21.76 46.40L22.48 44.06L23.20 41.71L23.92 39.37L24.64 37.02L25.36 34.68L26.08 32.33L26.80 29.99L27.52 27.64L28.24 25.30L29.42 27.39L30.61 29.53L31.80 31.67L32.31 33.89L31.57 36.23L30.84 38.57L30.10 40.91L29.37 43.25L28.63 45.59L27.90 47.92L27.16 50.26L26.43 52.60L25.69 54.94L24.96 57.28L24.22 59.62L23.49 61.96L22.75 64.30L22.02 66.64L20.19 67.50L17.74 67.50L15.29 67.50L15.99 67.50L15.29 67.50L15.99 67.50L15.29 67.50M22.58 64.27L22.58 64.27L21.97 64.62L22.58 64.27L21.97 64.62L22.58 64.27L20.55 65.44L18.52 66.61L16.98 67.50L16.02 65.75L17.92 64.65L19.83 63.55L21.65 62.50L23.46 61.45L24.35 58.63L21.14 60.48L19.01 61.71L16.88 62.94L17.74 60.13L18.98 59.41L22.45 57.41L25.24 55.80L26.12 52.98L23.76 54.35L20.29 56.35L18.60 57.33L19.46 54.52L21.60 53.28L25.07 51.28L27.01 50.16L27.90 47.34L26.38 48.22L22.91 50.22L20.32 51.71L21.18 48.91L24.22 47.15L27.69 45.15L28.78 44.52L29.67 41.70L27.60 42.89L25.53 44.09L23.79 45.09L22.04 46.10L22.91 43.29L24.87 42.16L26.84 41.02L28.70 39.95L30.56 38.88L31.44 36.05L28.15 37.96L24.69 39.96L23.77 40.49L24.63 37.68L25.99 36.89L29.46 34.89L32.15 33.33L31.18 31.59L29.24 32.71L27.30 33.83L25.49 34.87L26.35 32.07L28.61 30.76L30.21 29.84L29.24 28.09L27.21 29.26L27.82 28.91L27.21 29.26L27.82 28.91L27.21 29.26M27.96 24.17L27.96 24.17L28.31 24.78L27.96 24.17L28.31 24.78L27.96 24.17L28.87 25.74L29.77 27.31L31.52 30.34L33.16 33.17L32.98 33.72L31.74 31.57L29.99 28.53L28.89 26.63L27.79 24.73L27.62 25.30L28.45 26.73L30.20 29.76L31.95 32.79L32.81 34.28L32.63 34.84L31.52 32.91L30.41 30.99L28.66 27.95L27.45 25.86L27.27 26.42L28.87 29.18L30.62 32.21L31.54 33.80L32.46 35.39L32.28 35.95L30.83 33.44L29.08 30.41L28.09 28.69L27.10 26.98L26.93 27.54L27.54 28.60L29.29 31.63L31.04 34.66L32.11 36.51L31.93 37.06L31.25 35.89L29.50 32.86L27.75 29.82L26.76 28.10L26.59 28.67L27.96 31.05L29.71 34.08L30.73 35.85L31.76 37.62L31.58 38.18L29.92 35.31L28.17 32.28L27.29 30.75L26.41 29.23L26.24 29.79L27.31 31.64L28.38 33.50L30.13 36.53L31.41 38.74L31.23 39.29L30.35 37.76L28.60 34.73L26.85 31.70L26.07 30.35L25.90 30.91L27.06 32.92L28.81 35.95L30.56 38.98L31.06 39.85L30.88 40.41L29.95 38.79L29.02 37.18L27.27 34.15L25.72 31.47L25.55 32.03L26.51 33.70L27.48 35.37L29.23 38.40L30.71 40.96L30.53 41.52L29.44 39.63L27.69 36.60L25.94 33.57L25.38 32.60L25.21 33.16L26.15 34.79L27.90 37.82L29.65 40.85L30.36 42.08L30.18 42.63L29.15 40.84L28.11 39.05L26.36 36.02L25.03 33.72L24.86 34.28L26.57 37.24L28.32 40.27L30.01 43.19L29.83 43.75L28.53 41.50L26.78 38.47L25.74 36.65L24.69 34.84L24.52 35.40L25.24 36.66L26.99 39.69L28.74 42.72L29.66 44.30L29.48 44.86L28.95 43.95L27.20 40.92L25.45 37.89L24.35 35.97L24.17 36.53L25.67 39.11L27.42 42.14L28.36 43.78L29.31 45.42L29.13 45.97L27.63 43.37L25.88 40.34L24.94 38.71L24.00 37.09L23.83 37.65L24.34 38.53L26.09 41.56L27.84 44.59L28.96 46.53L28.78 47.09L28.05 45.82L26.30 42.79L24.55 39.76L23.66 38.21L23.48 38.77L24.76 40.98L26.51 44.01L27.56 45.83L28.61 47.65L28.43 48.20L26.72 45.24L24.97 42.21L23.31 39.33L23.14 39.90L24.16 41.66L25.18 43.43L26.93 46.46L28.26 48.76L28.08 49.32L27.14 47.69L25.39 44.66L23.64 41.63L22.97 40.46L22.79 41.02L23.85 42.85L25.60 45.88L27.35 48.92L27.91 49.87L27.73 50.43L26.77 48.77L25.81 47.11L24.06 44.08L22.62 41.58L22.45 42.14L23.36 43.72L24.28 45.30L26.03 48.33L27.56 50.99L27.38 51.54L26.24 49.56L24.49 46.53L23.38 44.62L22.28 42.70L22.11 43.27L22.95 44.72L24.70 47.75L26.45 50.79L27.21 52.10L27.03 52.66L25.97 50.82L24.91 48.98L23.16 45.95L21.93 43.83L21.76 44.39L23.37 47.17L25.12 50.21L26.86 53.21L26.68 53.77L25.33 51.43L23.58 48.40L22.58 46.67L21.59 44.95L21.42 45.51L22.04 46.59L23.79 49.62L25.54 52.66L26.51 54.33L26.33 54.88L25.75 53.88L24.00 50.85L22.25 47.82L21.24 46.07L21.07 46.64L22.46 49.04L24.21 52.08L25.18 53.76L26.16 55.44L25.98 56.00L24.42 53.30L22.67 50.27L21.79 48.73L20.90 47.20L20.73 47.76L21.81 49.63L22.88 51.50L24.63 54.53L25.81 56.56L25.63 57.11L24.85 55.75L23.10 52.72L21.35 49.69L20.55 48.32L20.38 48.88L21.56 50.91L23.31 53.95L24.38 55.81L25.46 57.67L25.28 58.23L24.40 56.70L23.52 55.17L21.77 52.14L20.21 49.44L20.04 50.00L21.01 51.69L21.98 53.37L23.73 56.40L25.11 58.78L24.93 59.34L23.94 57.62L22.19 54.59L20.44 51.56L19.87 50.57L19.69 51.13L20.65 52.79L22.40 55.82L24.15 58.85L24.76 59.90L24.58 60.45L23.60 58.75L22.61 57.04L20.86 54.01L19.52 51.69L19.35 52.25L21.07 55.24L22.82 58.27L24.41 61.01L24.23 61.57L23.03 59.49L21.28 56.46L20.23 54.64L19.18 52.81L19.00 53.37L19.74 54.66L21.49 57.69L23.24 60.72L24.06 62.12L23.88 62.68L22.79 60.80L21.70 58.91L19.95 55.88L18.83 53.94L18.66 54.50L20.17 57.11L21.92 60.14L22.81 61.69L23.71 63.24L23.53 63.79L22.13 61.36L20.38 58.33L19.43 56.70L18.49 55.06L18.31 55.62L18.84 56.53L20.59 59.56L22.34 62.59L23.36 64.35L23.18 64.91L22.55 63.81L20.80 60.78L19.05 57.75L18.14 56.18L17.97 56.74L19.26 58.98L21.01 62.01L22.01 63.74L23.01 65.46L22.83 66.02L21.22 63.23L19.47 60.20L17.80 57.31L17.63 57.87L18.65 59.65L19.68 61.43L21.43 64.46L22.66 66.58L22.48 67.14L21.64 65.68L19.89 62.65L18.14 59.62L17.45 58.43L17.28 58.99L18.35 60.85L20.10 63.88L21.20 65.79L22.31 67.69L22.05 68.11L20.31 65.10L18.56 62.07L17.11 59.55L16.94 60.11L17.86 61.71L18.78 63.30L20.53 66.33L21.55 68.11L21.06 68.11L20.02 66.32L18.99 64.52L17.88 62.60L16.76 60.67L16.59 61.24L17.45 62.72L19.20 65.75L20.56 68.11L20.06 68.11L19.41 66.97L17.66 63.94L16.42 61.80L16.25 62.36L17.87 65.17L19.57 68.11L19.07 68.11L18.08 66.39L17.08 64.66L16.08 62.92L15.90 63.48L16.54 64.59L17.56 66.35L18.57 68.11L18.08 68.11L16.75 65.81L15.73 64.04L15.56 64.61L16.96 67.04L17.58 68.11L17.08 68.11L15.39 65.17L15.21 65.73L16.59 68.11L16.09 68.11L15.04 66.29L14.87 66.85L15.59 68.11L15.24 67.50L15.59 68.11L15.24 67.50L15.59 68.11M23.11 52.60L23.11 52.60L23.81 52.60L23.11 52.60L23.81 52.60L23.11 52.60L25.00 52.60L26.89 52.60L28.78 52.60L30.67 52.60L32.56 52.60L34.45 52.60L36.33 52.60L38.22 52.60L40.11 52.60L40.11 51.40L38.22 51.40L36.33 51.40L34.45 51.40L32.56 51.40L30.67 51.40L28.78 51.40L26.89 51.40L25.00 51.40L23.11 51.40L23.11 52.60L25.00 51.40L26.89 52.60L28.78 51.40L30.67 52.60L32.56 51.40L34.45 52.60L36.33 51.40L38.22 52.60L40.11 51.40L40.11 53.13L39.72 50.88L39.32 53.13L38.93 50.88L38.53 53.13L38.14 50.88L37.74 53.13L37.34 50.88L36.95 53.13L36.55 50.88L36.16 53.13L35.76 50.88L35.37 53.13L34.97 50.88L34.58 53.13L34.18 50.88L33.79 53.13L33.39 50.88L33.00 53.13L32.60 50.88L32.21 53.13L31.81 50.88L31.41 53.13L31.02 50.88L30.62 53.13L30.23 50.88L29.83 53.13L29.44 50.88L29.04 53.13L28.65 50.88L28.25 53.13L27.86 50.88L27.46 53.13L27.07 50.88L26.67 53.13L26.28 50.88L25.88 53.13L25.48 50.88L25.09 53.13L24.69 50.88L24.30 53.13L23.90 50.88L23.51 53.13L23.11 50.88L23.23 51.56L23.11 50.88L23.23 51.56L23.11 50.88M33.53 39.50L33.53 39.50L33.74 38.84L33.53 39.50L33.74 38.84L33.53 39.50L34.25 37.16L34.96 34.81L35.68 32.47L36.40 31.24L37.14 33.58L37.89 35.92L38.63 38.26L39.37 40.59L40.12 42.93L40.86 45.27L41.60 47.61L42.35 49.94L43.09 52.28L43.83 54.62L44.58 56.96L45.32 59.29L46.06 61.63L46.81 63.97L47.55 66.31L46.73 67.50L44.27 67.50L41.82 67.50L40.91 65.46L40.24 63.10L39.57 60.74L38.90 58.38L38.23 56.02L37.56 53.66L36.89 51.30L36.22 48.94L35.55 46.58L34.87 44.22L34.20 41.86L33.53 39.50L33.72 40.18L33.53 39.50L33.72 40.18L33.53 39.50M35.58 34.41L35.58 34.41L36.19 34.76L35.58 34.41L36.19 34.76L35.58 34.41L37.59 35.57L38.49 38.40L36.35 37.16L34.98 36.37L34.39 38.34L36.51 39.56L39.39 41.23L40.29 44.06L38.48 43.01L36.66 41.96L34.00 40.42L34.78 43.19L36.82 44.36L40.28 46.36L41.19 46.89L42.09 49.71L40.44 48.76L36.97 46.76L35.57 45.95L36.35 48.71L38.47 49.94L40.59 51.16L42.99 52.54L43.89 55.37L40.75 53.56L38.94 52.52L37.14 51.47L37.92 54.24L40.90 55.96L42.85 57.08L44.79 58.20L45.69 61.03L44.52 60.35L41.06 58.35L38.71 57.00L39.50 59.76L41.21 60.75L44.67 62.75L46.59 63.86L47.49 66.69L44.83 65.15L41.37 63.15L40.28 62.53L41.07 65.29L42.98 66.39L44.90 67.50L44.29 67.15L44.90 67.50L44.29 67.15L44.90 67.50M35.32 31.84L35.32 31.84L35.67 31.23L35.32 31.84L35.67 31.23L35.32 31.84L36.54 29.72L36.72 30.28L35.74 31.97L34.76 33.66L34.21 35.48L35.81 32.71L36.89 30.83L37.07 31.39L36.04 33.17L35.01 34.95L33.65 37.31L33.10 39.13L34.22 37.18L35.97 34.15L37.24 31.94L37.42 32.50L36.30 34.44L35.17 36.39L34.12 38.21L33.07 40.03L33.23 40.61L34.38 38.62L36.13 35.59L37.60 33.05L37.77 33.61L37.09 34.80L35.34 37.83L34.37 39.51L33.40 41.18L33.56 41.76L34.54 40.06L36.29 37.03L37.95 34.16L38.13 34.71L37.25 36.24L35.50 39.27L34.61 40.80L33.73 42.34L33.89 42.91L34.70 41.50L36.45 38.47L37.38 36.87L38.30 35.27L38.48 35.82L37.41 37.68L35.66 40.71L34.05 43.49L34.22 44.07L34.86 42.94L36.61 39.91L37.63 38.15L38.66 36.38L38.83 36.93L37.57 39.12L35.82 42.15L34.38 44.64L34.54 45.22L35.66 43.29L36.78 41.35L37.89 39.42L39.01 37.49L39.18 38.04L37.73 40.56L35.98 43.59L34.71 45.80L34.87 46.37L35.90 44.58L36.94 42.79L38.69 39.76L39.36 38.60L39.54 39.15L37.89 42.00L36.14 45.03L35.04 46.95L35.20 47.52L36.15 45.88L37.10 44.23L38.85 41.20L39.71 39.71L39.89 40.26L38.97 41.85L38.05 43.44L36.30 46.47L35.36 48.10L35.53 48.68L37.26 45.68L39.01 42.64L40.07 40.82L40.24 41.37L39.23 43.12L38.22 44.88L36.47 47.91L35.69 49.25L35.85 49.83L37.42 47.12L39.17 44.08L40.42 41.92L40.59 42.48L39.49 44.40L38.38 46.32L36.63 49.35L36.02 50.41L36.18 50.98L37.58 48.56L39.33 45.52L40.77 43.03L40.95 43.59L40.29 44.73L38.54 47.76L37.44 49.66L36.35 51.56L36.51 52.13L37.74 50.00L39.49 46.97L41.12 44.14L41.30 44.70L40.45 46.17L38.70 49.20L37.69 50.96L36.67 52.71L36.84 53.29L37.91 51.44L39.66 48.41L40.57 46.83L41.48 45.25L41.65 45.81L40.61 47.61L38.86 50.64L37.93 52.25L37.00 53.86L37.17 54.44L38.07 52.88L39.82 49.85L40.82 48.10L41.83 46.36L42.01 46.92L40.77 49.05L39.02 52.08L37.33 55.02L37.49 55.59L38.23 54.32L39.98 51.29L41.08 49.38L42.18 47.47L42.36 48.03L40.93 50.49L39.18 53.52L37.66 56.17L37.82 56.74L38.39 55.76L40.14 52.73L41.89 49.70L42.53 48.58L42.71 49.13L41.10 51.93L39.35 54.96L37.98 57.32L38.15 57.90L39.22 56.03L40.30 54.17L42.05 51.14L42.89 49.69L43.06 50.24L42.16 51.81L41.26 53.37L39.51 56.40L38.31 58.47L38.48 59.05L39.47 57.33L40.46 55.61L42.21 52.58L43.24 50.80L43.42 51.35L42.42 53.08L41.42 54.81L39.67 57.84L38.64 59.63L38.80 60.20L39.71 58.63L40.62 57.05L42.37 54.02L43.59 51.91L43.77 52.46L42.67 54.36L41.58 56.25L39.83 59.28L38.97 60.78L39.13 61.36L40.79 58.49L42.54 55.46L43.95 53.02L44.12 53.57L43.49 54.66L41.74 57.69L39.99 60.72L39.29 61.93L39.46 62.51L40.95 59.93L42.70 56.90L44.30 54.13L44.47 54.68L43.65 56.10L41.90 59.13L40.15 62.16L39.62 63.08L39.79 63.66L41.11 61.37L42.86 58.34L43.75 56.79L44.65 55.23L44.83 55.79L43.81 57.54L42.06 60.57L41.01 62.41L39.95 64.24L40.11 64.81L41.27 62.81L43.02 59.78L44.01 58.06L45.00 56.34L45.18 56.90L43.98 58.98L42.23 62.01L41.25 63.70L40.28 65.39L40.44 65.97L41.43 64.25L43.18 61.22L44.27 59.34L45.36 57.45L45.53 58.01L44.14 60.42L42.39 63.45L41.50 65.00L40.60 66.54L40.77 67.12L41.59 65.69L43.34 62.66L45.09 59.63L45.71 58.56L45.88 59.12L44.30 61.86L42.55 64.89L40.93 67.69L41.19 68.11L41.75 67.13L43.50 64.10L45.25 61.07L46.06 59.67L46.24 60.23L45.35 61.76L44.46 63.30L42.71 66.33L41.69 68.11L42.18 68.11L43.67 65.54L45.42 62.51L46.41 60.78L46.59 61.34L45.61 63.04L44.62 64.74L43.65 66.43L42.68 68.11L43.18 68.11L43.83 66.98L45.58 63.95L46.77 61.89L46.94 62.44L45.86 64.31L44.78 66.18L43.67 68.11L44.17 68.11L45.74 65.39L47.12 63.00L47.30 63.55L46.69 64.59L45.68 66.35L44.67 68.11L45.16 68.11L45.90 66.83L47.47 64.11L47.65 64.66L46.86 66.03L45.66 68.11L46.16 68.11L47.82 65.22L48.00 65.77L46.65 68.11L47.15 68.11L48.18 66.33L48.35 66.88L47.64 68.11L47.99 67.50L47.64 68.11L47.99 67.50L47.64 68.11" fill="none" stroke="#dcd7eb" stroke-width="0.3" stroke-linejoin="round"/><path d="M31.61 60.70L31.61 60.70L31.78 60.02L31.61 60.70L31.78 60.02L31.61 60.70L32.20 58.38L33.87 56.80L36.08 57.39L36.77 59.55L35.56 61.56L33.79 63.18L32.07 64.83L31.30 65.78L29.43 63.18L27.67 61.56L26.46 59.55L27.14 57.39L29.36 56.80L31.02 58.38L31.61 60.70L31.44 60.02L31.61 60.70L31.44 60.02L31.61 60.70M36.68 58.98L36.68 58.98L36.33 59.59L36.68 58.98L36.33 59.59L36.68 58.98L35.34 61.31L34.47 62.82L31.30 64.32L32.94 61.46L34.11 59.44L35.27 57.42L33.08 57.22L32.54 58.16L30.54 61.62L29.82 62.87L28.29 61.52L29.30 59.76L30.32 58.00L28.52 57.13L27.75 58.46L26.92 59.90L27.27 59.29L26.92 59.90L27.27 59.29L26.92 59.90M34.77 56.21L34.77 56.21L35.37 56.56L34.77 56.21L35.37 56.56L34.77 56.21L36.81 57.39L37.29 58.16L35.00 56.84L33.92 56.22L33.32 56.37L35.80 57.80L37.40 58.73L37.46 59.25L35.16 57.93L32.86 56.60L32.49 56.88L34.36 57.96L37.37 59.70L37.28 60.15L35.15 58.92L32.17 57.20L31.92 57.55L32.92 58.12L35.95 59.87L37.08 60.53L36.87 60.90L35.29 59.99L33.71 59.08L31.71 57.92L28.00 56.28L29.82 57.33L31.63 58.38L36.36 61.60L35.30 60.99L32.27 59.24L29.24 57.49L27.42 56.44L27.04 56.71L30.03 58.44L33.07 60.19L36.07 61.93L35.77 62.25L33.86 61.15L30.83 59.40L27.80 57.65L26.65 56.99L26.38 57.33L28.59 58.61L31.63 60.36L33.53 61.46L35.43 62.55L35.10 62.86L32.42 61.31L29.39 59.56L27.76 58.62L26.14 57.68L25.93 58.06L27.15 58.77L30.18 60.52L33.22 62.27L34.76 63.16L34.41 63.46L32.70 62.46L30.98 61.47L27.95 59.72L25.84 58.51L25.75 58.95L28.74 60.68L31.78 62.43L34.07 63.75L33.72 64.05L32.57 63.38L29.54 61.63L27.69 60.57L25.84 59.50L25.95 60.06L27.30 60.84L30.34 62.59L31.87 63.47L33.40 64.36L33.07 64.67L31.13 63.55L28.10 61.80L26.36 60.79L27.06 61.69L28.89 62.75L30.83 63.87L32.76 64.98L32.48 65.32L29.69 63.71L28.36 62.94L29.96 64.36L32.20 65.66L31.98 66.02L30.96 65.43L31.56 65.78L30.96 65.43L31.56 65.78L30.96 65.43M28.69 56.18L28.69 56.18L29.30 56.53L28.69 56.18L29.30 56.53L28.69 56.18L31.32 57.70L30.72 57.35L31.32 57.70L30.72 57.35L31.32 57.70M31.56 58.34L31.56 58.34L32.17 58.69L31.56 58.34L32.17 58.69L31.56 58.34L34.51 60.03L36.65 61.27L36.05 60.92L36.65 61.27L36.05 60.92L36.65 61.27" fill="none" stroke="#cc662b" stroke-width="0.3" stroke-linejoin="round"/><path d="M31.01 67.50L31.01 67.50L31.01 68.20L31.01 67.50L31.01 68.20L31.01 67.50L31.01 69.33L31.01 71.17L31.01 73.00L31.01 74.83L31.01 76.67L31.01 78.50L31.01 80.33L31.01 82.17L31.01 84.00L32.21 84.00L32.21 82.17L32.21 80.33L32.21 78.50L32.21 76.67L32.21 74.83L32.21 73.00L32.21 71.17L32.21 69.33L32.21 67.50L31.01 67.50L32.21 69.33L31.01 71.17L32.21 73.00L31.01 74.83L32.21 76.67L31.01 78.50L32.21 80.33L31.01 82.17L32.21 84.00L30.49 84.00L32.74 83.60L30.49 83.20L32.74 82.79L30.49 82.39L32.74 81.99L30.49 81.59L32.74 81.18L30.49 80.78L32.74 80.38L30.49 79.98L32.74 79.57L30.49 79.17L32.74 78.77L30.49 78.37L32.74 77.96L30.49 77.56L32.74 77.16L30.49 76.76L32.74 76.35L30.49 75.95L32.74 75.55L30.49 75.15L32.74 74.74L30.49 74.34L32.74 73.94L30.49 73.54L32.74 73.13L30.49 72.73L32.74 72.33L30.49 71.93L32.74 71.52L30.49 71.12L32.74 70.72L30.49 70.32L32.74 69.91L30.49 69.51L32.74 69.11L30.49 68.71L32.74 68.30L30.49 67.90L32.74 67.50L32.05 67.62L32.74 67.50L32.05 67.62L32.74 67.50M31.61 84.00L31.61 84.00L31.05 84.42L31.61 84.00L31.05 84.42L31.61 84.00L30.09 85.14L31.61 84.00L30.09 85.14L28.58 86.28L30.09 85.14L28.58 86.28L27.06 87.41L28.58 86.28L27.06 87.41L25.54 88.55L27.06 87.41L25.54 88.55L24.03 89.69L25.54 88.55L24.03 89.69L22.64 90.98L24.03 89.69L22.64 90.98L21.29 92.32L22.64 90.98L21.29 92.32L19.95 93.66L21.29 92.32L19.95 93.66L18.61 95.00L19.95 93.66L18.61 95.00L19.11 94.51L18.61 95.00L19.11 94.51L18.61 95.00M31.61 84.00L31.61 84.00L31.50 84.69L31.61 84.00L31.50 84.69L31.61 84.00L31.29 85.92L31.61 84.00L31.29 85.92L30.97 87.85L31.29 85.92L30.97 87.85L30.65 89.77L30.97 87.85L30.65 89.77L30.39 91.70L30.65 89.77L30.39 91.70L30.13 93.63L30.39 91.70L30.13 93.63L29.87 95.57L30.13 93.63L29.87 95.57L29.61 97.50L29.87 95.57L29.61 97.50L29.70 96.81L29.61 97.50L29.70 96.81L29.61 97.50M31.61 84.00L31.61 84.00L32.17 84.42L31.61 84.00L32.17 84.42L31.61 84.00L33.10 85.12L31.61 84.00L33.10 85.12L34.59 86.23L33.10 85.12L34.59 86.23L36.07 87.35L34.59 86.23L36.07 87.35L37.56 88.46L36.07 87.35L37.56 88.46L39.05 89.58L37.56 88.46L39.05 89.58L40.47 90.77L39.05 89.58L40.47 90.77L41.85 92.01L40.47 90.77L41.85 92.01L43.23 93.26L41.85 92.01L43.23 93.26L44.61 94.50L43.23 93.26L44.61 94.50L44.09 94.03L44.61 94.50L44.09 94.03L44.61 94.50" fill="none" stroke="#b89569" stroke-width="0.3" stroke-linejoin="round"/><path d="M34.58 15.47L34.58 15.47L35.08 15.96L34.58 15.47L35.08 15.96L34.58 15.47L35.86 16.74L36.37 16.23L35.02 16.94L35.73 15.59L34.39 16.30L35.09 14.96L34.77 15.58L35.09 14.96L34.77 15.58L35.09 14.96M35.81 12.50L35.81 12.50L36.51 12.50L35.81 12.50L36.51 12.50L35.81 12.50L37.58 12.50L39.35 12.50L41.11 12.50L41.11 13.22L40.70 11.78L40.30 13.22L39.89 11.78L39.48 13.22L39.07 11.78L38.67 13.22L38.26 11.78L37.85 13.22L37.44 11.78L37.04 13.22L36.63 11.78L36.22 13.22L35.81 11.78L36.00 12.45L35.81 11.78L36.00 12.45L35.81 11.78M34.58 9.53L34.58 9.53L35.08 9.04L34.58 9.53L35.08 9.04L34.58 9.53L35.86 8.26L35.34 7.74L36.05 9.09L34.71 8.38L35.41 9.72L34.07 9.02L34.69 9.34L34.07 9.02L34.69 9.34L34.07 9.02M31.61 8.30L31.61 8.30L31.61 7.60L31.61 8.30L31.61 7.60L31.61 8.30L31.61 6.53L31.61 4.77L31.61 3.00L32.34 3.00L30.89 3.41L32.34 3.82L30.89 4.22L32.34 4.63L30.89 5.04L32.34 5.45L30.89 5.85L32.34 6.26L30.89 6.67L32.34 7.08L30.89 7.48L32.34 7.89L30.89 8.30L31.56 8.11L30.89 8.30L31.56 8.11L30.89 8.30M28.64 9.53L28.64 9.53L28.15 9.04L28.64 9.53L28.15 9.04L28.64 9.53L27.37 8.26L26.86 8.77L28.20 8.06L27.49 9.41L28.84 8.70L28.13 10.04L28.46 9.42L28.13 10.04L28.46 9.42L28.13 10.04M27.41 12.50L27.41 12.50L26.71 12.50L27.41 12.50L26.71 12.50L27.41 12.50L25.65 12.50L23.88 12.50L22.11 12.50L22.11 11.78L22.52 13.23L22.93 11.78L23.34 13.23L23.74 11.78L24.15 13.23L24.56 11.78L24.97 13.22L25.37 11.78L25.78 13.22L26.19 11.78L26.60 13.22L27.00 11.78L27.41 13.22L27.22 12.55L27.41 13.22L27.22 12.55L27.41 13.22M28.64 15.47L28.64 15.47L28.15 15.96L28.64 15.47L28.15 15.96L28.64 15.47L27.37 16.74L27.88 17.26L27.18 15.91L28.52 16.62L27.81 15.28L29.16 15.98L28.54 15.66L29.16 15.98L28.54 15.66L29.16 15.98" fill="none" stroke="#e0b18e" stroke-width="0.3" stroke-linejoin="round"/></svg>