<svg xmlns="http://www.w3.org/2000/svg" viewBox="0 0 227 164"><path fill="currentColor" fill-rule="evenodd" d="M157,130 L156,130 L150,135 L140,140 L138,140 L137,141 L134,141 L133,142 L130,142 L129,143 L125,143 L125,146 L127,146 L128,145 L131,145 L132,144 L134,144 L135,143 L140,142 L148,138 L150,136 L151,136 L154,133 L155,133 L157,131 ZM72,130 L72,131 L74,133 L75,133 L80,137 L92,143 L95,143 L96,144 L98,144 L99,145 L102,145 L104,146 L104,143 L100,143 L99,142 L96,142 L95,141 L90,140 L87,138 L85,138 L83,136 L78,134 L76,132 ZM89,86 L89,87 L110,88 L111,89 L140,87 L140,86 L133,86 L132,85 L97,85 L96,86 ZM97,63 L97,64 L113,80 L116,80 L124,72 L124,71 L131,64 L132,64 L132,63 L113,63 L112,64 L110,63 ZM53,43 L43,61 L38,84 L45,119 L56,137 L67,148 L86,159 L103,163 L104,153 L88,149 L72,140 L58,126 L48,108 L43,77 ZM175,42 L186,77 L180,111 L172,125 L156,141 L144,148 L125,153 L125,163 L145,158 L163,147 L176,133 L185,117 L190,99 L190,77 L185,59 ZM67,34 L52,62 L54,96 L78,127 L113,139 L115,163 L116,138 L146,130 L169,108 L178,83 L175,55 L161,34 L171,60 L166,93 L149,114 L124,124 L148,125 L117,132 L116,116 L124,105 L114,94 L105,104 L113,130 L83,127 L104,124 L80,114 L59,82 ZM113,102 L116,102 L118,104 L118,106 L117,107 L117,108 L116,109 L113,109 L111,107 L111,104 ZM111,32 L107,34 L103,39 L103,41 L102,42 L102,48 L103,49 L103,51 L107,56 L111,58 L117,58 L118,57 L120,57 L125,52 L126,48 L127,47 L127,43 L126,42 L125,38 L121,34 L117,32 ZM113,39 L116,39 L120,43 L120,48 L116,52 L113,52 L112,51 L111,51 L109,49 L109,48 L108,47 L108,43 L111,40 L112,40 ZM114,13 L114,14 L113,15 L113,16 L112,17 L112,19 L111,20 L111,21 L110,22 L110,24 L111,25 L119,25 L119,23 L118,22 L118,21 L117,20 L117,18 L116,17 L116,16 L115,15 L115,13 Z"/></svg>