<svg xmlns="http://www.w3.org/2000/svg" width="250mm" height="60mm" viewBox="0 0 250 60"><rect width="100%" height="100%" fill="#efe6d2"/><polyline points="0.00,1.80 250.00,1.80" fill="none" stroke="#1f2c4c" stroke-width="1.2" stroke-linecap="round" stroke-linejoin="round"/><polyline points="0.00,58.20 250.00,58.20" fill="none" stroke="#1f2c4c" stroke-width="1.2" stroke-linecap="round" stroke-linejoin="round"/><polygon points="2.50,3.50 3.90,4.90 2.50,6.30 1.10,4.90" fill="#1f2c4c"/><polygon points="7.50,3.50 8.90,4.90 7.50,6.30 6.10,4.90" fill="#b3332b"/><polygon points="12.50,3.50 13.90,4.90 12.50,6.30 11.10,4.90" fill="#1f2c4c"/><polygon points="17.50,3.50 18.90,4.90 17.50,6.30 16.10,4.90" fill="#b3332b"/><polygon points="22.50,3.50 23.90,4.90 22.50,6.30 21.10,4.90" fill="#1f2c4c"/><polygon points="27.50,3.50 28.90,4.90 27.50,6.30 26.10,4.90" fill="#b3332b"/><polygon points="32.50,3.50 33.90,4.90 32.50,6.30 31.10,4.90" fill="#1f2c4c"/><polygon points="37.50,3.50 38.90,4.90 37.50,6.30 36.10,4.90" fill="#b3332b"/><polygon points="42.50,3.50 43.90,4.90 42.50,6.30 41.10,4.90" fill="#1f2c4c"/><polygon points="47.50,3.50 48.90,4.90 47.50,6.30 46.10,4.90" fill="#b3332b"/><polygon points="52.50,3.50 53.90,4.90 52.50,6.30 51.10,4.90" fill="#1f2c4c"/><polygon points="57.50,3.50 58.90,4.90 57.50,6.30 56.10,4.90" fill="#b3332b"/><polygon points="62.50,3.50 63.90,4.90 62.50,6.30 61.10,4.90" fill="#1f2c4c"/><polygon points="67.50,3.50 68.90,4.90 67.50,6.30 66.10,4.90" fill="#b3332b"/><polygon points="72.50,3.50 73.90,4.90 72.50,6.30 71.10,4.90" fill="#1f2c4c"/><polygon points="77.50,3.50 78.90,4.90 77.50,6.30 76.10,4.90" fill="#b3332b"/><polygon points="82.50,3.50 83.90,4.90 82.50,6.30 81.10,4.90" fill="#1f2c4c"/><polygon points="87.50,3.50 88.90,4.90 87.50,6.30 86.10,4.90" fill="#b3332b"/><polygon points="92.50,3.50 93.90,4.90 92.50,6.30 91.10,4.90" fill="#1f2c4c"/><polygon points="97.50,3.50 98.90,4.90 97.50,6.30 96.10,4.90" fill="#b3332b"/><polygon points="102.50,3.50 103.90,4.90 102.50,6.30 101.10,4.90" fill="#1f2c4c"/><polygon points="107.50,3.50 108.90,4.90 107.50,6.30 106.10,4.90" fill="#b3332b"/><polygon points="112.50,3.50 113.90,4.90 112.50,6.30 111.10,4.90" fill="#1f2c4c"/><polygon points="117.50,3.50 118.90,4.90 117.50,6.30 116.10,4.90" fill="#b3332b"/><polygon points="122.50,3.50 123.90,4.90 122.50,6.30 121.10,4.90" fill="#1f2c4c"/><polygon points="127.50,3.50 128.90,4.90 127.50,6.30 126.10,4.90" fill="#b3332b"/><polygon points="132.50,3.50 133.90,4.90 132.50,6.30 131.10,4.90" fill="#1f2c4c"/><polygon points="137.50,3.50 138.90,4.90 137.50,6.30 136.10,4.90" fill="#b3332b"/><polygon points="142.50,3.50 143.90,4.90 142.50,6.30 141.10,4.90" fill="#1f2c4c"/><polygon points="147.50,3.50 148.90,4.90 147.50,6.30 146.10,4.90" fill="#b3332b"/><polygon points="152.50,3.50 153.90,4.90 152.50,6.30 151.10,4.90" fill="#1f2c4c"/><polygon points="157.50,3.50 158.90,4.90 157.50,6.30 156.10,4.90" fill="#b3332b"/><polygon points="162.50,3.50 163.90,4.90 162.50,6.30 161.10,4.90" fill="#1f2c4c"/><polygon points="167.50,3.50 168.90,4.90 167.50,6.30 166.10,4.90" fill="#b3332b"/><polygon points="172.50,3.50 173.90,4.90 172.50,6.30 171.10,4.90" fill="#1f2c4c"/><polygon points="177.50,3.50 178.90,4.90 177.50,6.30 176.10,4.90" fill="#b3332b"/><polygon points="182.50,3.50 183.90,4.90 182.50,6.30 181.10,4.90" fill="#1f2c4c"/><polygon points="187.50,3.50 188.90,4.90 187.50,6.30 186.10,4.90" fill="#b3332b"/><polygon points="192.50,3.50 193.90,4.90 192.50,6.30 191.10,4.90" fill="#1f2c4c"/><polygon points="197.50,3.50 198.90,4.90 197.50,6.30 196.10,4.90" fill="#b3332b"/><polygon points="202.50,3.50 203.90,4.90 202.50,6.30 201.10,4.90" fill="#1f2c4c"/><polygon points="207.50,3.50 208.90,4.90 207.50,6.30 206.10,4.90" fill="#b3332b"/><polygon points="212.50,3.50 213.90,4.90 212.50,6.30 211.10,4.90" fill="#1f2c4c"/><polygon points="217.50,3.50 218.90,4.90 217.50,6.30 216.10,4.90" fill="#b3332b"/><polygon points="222.50,3.50 223.90,4.90 222.50,6.30 221.10,4.90" fill="#1f2c4c"/><polygon points="227.50,3.50 228.90,4.90 227.50,6.30 226.10,4.90" fill="#b3332b"/><polygon points="232.50,3.50 233.90,4.90 232.50,6.30 231.10,4.90" fill="#1f2c4c"/><polygon points="237.50,3.50 238.90,4.90 237.50,6.30 236.10,4.90" fill="#b3332b"/><polygon points="242.50,3.50 243.90,4.90 242.50,6.30 241.10,4.90" fill="#1f2c4c"/><polygon points="247.50,3.50 248.90,4.90 247.50,6.30 246.10,4.90" fill="#b3332b"/><polygon points="2.50,53.70 3.90,55.10 2.50,56.50 1.10,55.10" fill="#1f2c4c"/><polygon points="7.50,53.70 8.90,55.10 7.50,56.50 6.10,55.10" fill="#b3332b"/><polygon points="12.50,53.70 13.90,55.10 12.50,56.50 11.10,55.10" fill="#1f2c4c"/><polygon points="17.50,53.70 18.90,55.10 17.50,56.50 16.10,55.10" fill="#b3332b"/><polygon points="22.50,53.70 23.90,55.10 22.50,56.50 21.10,55.10" fill="#1f2c4c"/><polygon points="27.50,53.70 28.90,55.10 27.50,56.50 26.10,55.10" fill="#b3332b"/><polygon points="32.50,53.70 33.90,55.10 32.50,56.50 31.10,55.10" fill="#1f2c4c"/><polygon points="37.50,53.70 38.90,55.10 37.50,56.50 36.10,55.10" fill="#b3332b"/><polygon points="42.50,53.70 43.90,55.10 42.50,56.50 41.10,55.10" fill="#1f2c4c"/><polygon points="47.50,53.70 48.90,55.10 47.50,56.50 46.10,55.10" fill="#b3332b"/><polygon points="52.50,53.70 53.90,55.10 52.50,56.50 51.10,55.10" fill="#1f2c4c"/><polygon points="57.50,53.70 58.90,55.10 57.50,56.50 56.10,55.10" fill="#b3332b"/><polygon points="62.50,53.70 63.90,55.10 62.50,56.50 61.10,55.10" fill="#1f2c4c"/><polygon points="67.50,53.70 68.90,55.10 67.50,56.50 66.10,55.10" fill="#b3332b"/><polygon points="72.50,53.70 73.90,55.10 72.50,56.50 71.10,55.10" fill="#1f2c4c"/><polygon points="77.50,53.70 78.90,55.10 77.50,56.50 76.10,55.10" fill="#b3332b"/><polygon points="82.50,53.70 83.90,55.10 82.50,56.50 81.10,55.10" fill="#1f2c4c"/><polygon points="87.50,53.70 88.90,55.10 87.50,56.50 86.10,55.10" fill="#b3332b"/><polygon points="92.50,53.70 93.90,55.10 92.50,56.50 91.10,55.10" fill="#1f2c4c"/><polygon points="97.50,53.70 98.90,55.10 97.50,56.50 96.10,55.10" fill="#b3332b"/><polygon points="102.50,53.70 103.90,55.10 102.50,56.50 101.10,55.10" fill="#1f2c4c"/><polygon points="107.50,53.70 108.90,55.10 107.50,56.50 106.10,55.10" fill="#b3332b"/><polygon points="112.50,53.70 113.90,55.10 112.50,56.50 111.10,55.10" fill="#1f2c4c"/><polygon points="117.50,53.70 118.90,55.10 117.50,56.50 116.10,55.10" fill="#b3332b"/><polygon points="122.50,53.70 123.90,55.10 122.50,56.50 121.10,55.10" fill="#1f2c4c"/><polygon points="127.50,53.70 128.90,55.10 127.50,56.50 126.10,55.10" fill="#b3332b"/><polygon points="132.50,53.70 133.90,55.10 132.50,56.50 131.10,55.10" fill="#1f2c4c"/><polygon points="137.50,53.70 138.90,55.10 137.50,56.50 136.10,55.10" fill="#b3332b"/><polygon points="142.50,53.70 143.90,55.10 142.50,56.50 141.10,55.10" fill="#1f2c4c"/><polygon points="147.50,53.70 148.90,55.10 147.50,56.50 146.10,55.10" fill="#b3332b"/><polygon points="152.50,53.70 153.90,55.10 152.50,56.50 151.10,55.10" fill="#1f2c4c"/><polygon points="157.50,53.70 158.90,55.10 157.50,56.50 156.10,55.10" fill="#b3332b"/><polygon points="162.50,53.70 163.90,55.10 162.50,56.50 161.10,55.10" fill="#1f2c4c"/><polygon points="167.50,53.70 168.90,55.10 167.50,56.50 166.10,55.10" fill="#b3332b"/><polygon points="172.50,53.70 173.90,55.10 172.50,56.50 171.10,55.10" fill="#1f2c4c"/><polygon points="177.50,53.70 178.90,55.10 177.50,56.50 176.10,55.10" fill="#b3332b"/><polygon points="182.50,53.70 183.90,55.10 182.50,56.50 181.10,55.10" fill="#1f2c4c"/><polygon points="187.50,53.70 188.90,55.10 187.50,56.50 186.10,55.10" fill="#b3332b"/><polygon points="192.50,53.70 193.90,55.10 192.50,56.50 191.10,55.10" fill="#1f2c4c"/><polygon points="197.50,53.70 198.90,55.10 197.50,56.50 196.10,55.10" fill="#b3332b"/><polygon points="202.50,53.70 203.90,55.10 202.50,56.50 201.10,55.10" fill="#1f2c4c"/><polygon points="207.50,53.70 208.90,55.10 207.50,56.50 206.10,55.10" fill="#b3332b"/><polygon points="212.50,53.70 213.90,55.10 212.50,56.50 211.10,55.10" fill="#1f2c4c"/><polygon points="217.50,53.70 218.90,55.10 217.50,56.50 216.10,55.10" fill="#b3332b"/><polygon points="222.50,53.70 223.90,55.10 222.50,56.50 221.10,55.10" fill="#1f2c4c"/><polygon points="227.50,53.70 228.90,55.10 227.50,56.50 226.10,55.10" fill="#b3332b"/><polygon points="232.50,53.70 233.90,55.10 232.50,56.50 231.10,55.10" fill="#1f2c4c"/><polygon points="237.50,53.70 238.90,55.10 237.50,56.50 236.10,55.10" fill="#b3332b"/><polygon points="242.50,53.70 243.90,55.10 242.50,56.50 241.10,55.10" fill="#1f2c4c"/><polygon points="247.50,53.70 248.90,55.10 247.50,56.50 246.10,55.10" fill="#b3332b"/><polyline points="44.43,49.80 44.43,21.29" fill="none" stroke="#b3332b" stroke-width="1.6" stroke-linecap="round" stroke-linejoin="round"/><polyline points="44.43,21.29 44.56,20.44 44.79,19.63 45.11,18.85 45.52,18.14 46.01,17.48 46.57,16.89 47.19,16.39 47.86,15.97 48.56,15.63 49.29,15.39 50.04,15.24 50.78,15.18 51.52,15.21 52.24,15.33 52.94,15.54 53.59,15.82 54.19,16.17 54.74,16.60 55.23,17.07 55.65,17.60 56.00,18.16 56.27,18.76 56.47,19.37 56.58,20.00 56.62,20.62 56.58,21.24 56.47,21.83 56.29,22.40 56.05,22.93 55.75,23.42 55.39,23.87 54.99,24.26 54.56,24.59 54.09,24.86 53.61,25.07 53.11,25.21 52.61,25.29 52.11,25.31 51.62,25.26 51.15,25.16 50.70,25.01 50.29,24.80 49.91,24.55 49.58,24.26 49.29,23.94 49.04,23.60 48.85,23.23 48.71,22.85 48.61,22.47 48.57,22.09 48.58,21.71 48.63,21.35 48.72,21.01 48.86,20.68 49.02,20.39 49.22,20.13 49.45,19.90 49.69,19.71 49.95,19.56 50.21,19.44" fill="none" stroke="#b3332b" stroke-width="1.6" stroke-linecap="round" stroke-linejoin="round"/><polyline points="44.43,21.29 44.30,20.44 44.06,19.63 43.74,18.85 43.33,18.14 42.84,17.48 42.28,16.89 41.66,16.39 41.00,15.97 40.29,15.63 39.56,15.39 38.82,15.24 38.07,15.18 37.33,15.21 36.61,15.33 35.92,15.54 35.27,15.82 34.66,16.17 34.11,16.60 33.62,17.07 33.20,17.60 32.86,18.16 32.58,18.76 32.39,19.37 32.27,20.00 32.23,20.62 32.27,21.24 32.38,21.83 32.56,22.40 32.81,22.93 33.11,23.42 33.46,23.87 33.86,24.26 34.30,24.59 34.76,24.86 35.25,25.07 35.75,25.21 36.25,25.29 36.75,25.31 37.24,25.26 37.71,25.16 38.15,25.01 38.56,24.80 38.94,24.55 39.28,24.26 39.57,23.94 39.81,23.60 40.00,23.23 40.15,22.85 40.24,22.47 40.28,22.09 40.28,21.71 40.23,21.35 40.13,21.01 40.00,20.68 39.83,20.39 39.63,20.13 39.41,19.90 39.16,19.71 38.91,19.56 38.64,19.44" fill="none" stroke="#b3332b" stroke-width="1.6" stroke-linecap="round" stroke-linejoin="round"/><polygon points="44.43,19.25 44.88,18.25 45.43,17.26 46.01,16.26 46.57,15.26 47.06,14.26 47.43,13.26 47.64,12.27 47.62,11.27 47.34,10.27 46.77,9.27 45.87,8.27 44.43,7.28 42.99,8.27 42.09,9.27 41.51,10.27 41.23,11.27 41.22,12.27 41.42,13.26 41.80,14.26 42.29,15.26 42.85,16.26 43.42,17.26 43.98,18.25" fill="#d39b35"/><polygon points="44.43,20.69 44.73,19.76 44.73,19.05 44.63,18.41 44.47,17.81 44.26,17.25 44.00,16.72 43.71,16.22 43.39,15.74 43.04,15.28 42.67,14.83 42.28,14.40 41.81,14.03 41.55,14.92 41.42,15.72 41.35,16.48 41.34,17.20 41.40,17.87 41.52,18.49 41.72,19.06 42.01,19.57 42.38,20.01 42.86,20.38 43.47,20.66" fill="#2b8796"/><polygon points="44.43,20.69 45.38,20.66 45.99,20.38 46.47,20.01 46.85,19.57 47.13,19.06 47.33,18.49 47.46,17.87 47.51,17.20 47.50,16.48 47.43,15.72 47.30,14.92 47.05,14.03 46.58,14.40 46.18,14.83 45.82,15.28 45.47,15.74 45.15,16.22 44.85,16.72 44.60,17.25 44.38,17.81 44.22,18.41 44.13,19.05 44.12,19.76" fill="#2b8796"/><polygon points="44.43,42.67 44.13,41.39 43.60,40.38 43.00,39.43 42.36,38.54 41.70,37.68 41.00,36.85 40.28,36.05 39.55,35.26 38.81,34.49 38.06,33.72 37.30,32.97 36.48,32.28 36.73,33.61 37.08,34.83 37.49,35.99 37.96,37.08 38.48,38.10 39.06,39.06 39.72,39.94 40.44,40.73 41.24,41.43 42.14,42.04 43.14,42.51" fill="#4f6b3a"/><polygon points="44.43,42.67 45.71,42.51 46.72,42.04 47.61,41.43 48.41,40.73 49.14,39.94 49.79,39.06 50.38,38.10 50.90,37.08 51.36,35.99 51.77,34.83 52.12,33.61 52.37,32.28 51.56,32.97 50.80,33.72 50.05,34.49 49.30,35.26 48.57,36.05 47.86,36.85 47.16,37.68 46.49,38.54 45.85,39.43 45.26,40.38 44.73,41.39" fill="#4f6b3a"/><polygon points="72.98,30.39 72.55,29.52 72.08,28.69 71.58,27.91 71.05,27.17 70.47,26.50 69.84,25.91 69.15,25.40 68.39,24.99 67.56,24.67 66.66,24.45 65.69,24.33 64.59,24.40 64.88,25.46 65.31,26.34 65.81,27.12 66.38,27.80 67.02,28.38 67.73,28.87 68.49,29.28 69.32,29.61 70.18,29.87 71.09,30.09 72.02,30.26" fill="#d39b35"/><polygon points="72.98,30.39 72.15,29.63 71.31,28.93 70.45,28.28 69.57,27.68 68.66,27.16 67.73,26.73 66.76,26.40 65.76,26.17 64.72,26.06 63.64,26.07 62.52,26.19 61.33,26.53 62.08,27.51 62.90,28.27 63.77,28.92 64.67,29.45 65.61,29.87 66.58,30.19 67.59,30.40 68.63,30.52 69.69,30.57 70.77,30.56 71.87,30.50" fill="#1f2c4c"/><polygon points="72.98,30.39 72.09,29.91 71.20,29.50 70.31,29.13 69.41,28.82 68.52,28.59 67.62,28.46 66.72,28.43 65.82,28.52 64.91,28.72 64.00,29.04 63.09,29.49 62.18,30.17 63.07,30.89 63.96,31.37 64.85,31.73 65.75,31.97 66.64,32.09 67.54,32.10 68.45,32.00 69.35,31.81 70.26,31.54 71.16,31.21 72.07,30.83" fill="#d39b35"/><polygon points="90.52,27.82 90.47,29.23 89.83,30.64 88.64,31.98 86.99,33.13 84.99,34.04 82.77,34.62 79.86,33.55 77.30,33.36 75.06,33.01 73.31,32.54 72.16,31.95 71.67,31.25 71.88,30.43 72.76,29.47 74.23,28.41 76.20,27.30 78.53,26.22 81.07,25.30 83.15,23.96 85.35,24.10 87.30,24.60 88.88,25.43 89.97,26.53" fill="#2b8796"/><polygon points="93.11,23.27 92.92,24.36 92.37,25.32 91.52,26.03 90.48,26.41 89.37,26.41 88.33,26.03 87.48,25.32 86.92,24.36 86.73,23.27 86.92,22.18 87.48,21.22 88.33,20.50 89.37,20.12 90.48,20.12 91.52,20.50 92.37,21.22 92.92,22.18" fill="#2b8796"/><polygon points="92.38,22.41 96.55,23.51 92.38,24.74" fill="#b3332b"/><polygon points="85.26,28.42 83.82,27.35 82.64,27.03 81.53,26.92 80.46,26.96 79.43,27.11 78.44,27.35 77.46,27.67 76.51,28.06 75.58,28.49 74.66,28.97 73.76,29.50 72.91,30.19 74.22,30.91 75.47,31.40 76.67,31.79 77.85,32.08 78.98,32.25 80.08,32.31 81.13,32.23 82.13,32.00 83.08,31.60 83.95,30.99 84.74,30.11" fill="#1f2c4c"/><polyline points="80.35,33.83 80.35,38.74 83.29,39.23" fill="none" stroke="#b3332b" stroke-width="0.9" stroke-linecap="round" stroke-linejoin="round"/><polyline points="83.29,33.83 83.29,38.74 86.24,39.23" fill="none" stroke="#b3332b" stroke-width="0.9" stroke-linecap="round" stroke-linejoin="round"/><polyline points="0.00,30.00 0.00,24.00" fill="none" stroke="#b3332b" stroke-width="1" stroke-linecap="round" stroke-linejoin="round"/><polyline points="0.00,30.00 5.20,27.00" fill="none" stroke="#b3332b" stroke-width="1" stroke-linecap="round" stroke-linejoin="round"/><polyline points="0.00,30.00 5.20,33.00" fill="none" stroke="#b3332b" stroke-width="1" stroke-linecap="round" stroke-linejoin="round"/><polyline points="0.00,30.00 0.00,36.00" fill="none" stroke="#b3332b" stroke-width="1" stroke-linecap="round" stroke-linejoin="round"/><polyline points="0.00,30.00 -5.20,33.00" fill="none" stroke="#b3332b" stroke-width="1" stroke-linecap="round" stroke-linejoin="round"/><polyline points="0.00,30.00 -5.20,27.00" fill="none" stroke="#b3332b" stroke-width="1" stroke-linecap="round" stroke-linejoin="round"/><polygon points="1.20,30.00 1.13,30.41 0.92,30.77 0.60,31.04 0.21,31.18 -0.21,31.18 -0.60,31.04 -0.92,30.77 -1.13,30.41 -1.20,30.00 -1.13,29.59 -0.92,29.23 -0.60,28.96 -0.21,28.82 0.21,28.82 0.60,28.96 0.92,29.23 1.13,29.59" fill="#b3332b"/><polyline points="169.43,49.80 169.43,21.29" fill="none" stroke="#b3332b" stroke-width="1.6" stroke-linecap="round" stroke-linejoin="round"/><polyline points="169.43,21.29 169.56,20.44 169.79,19.63 170.11,18.85 170.52,18.14 171.01,17.48 171.57,16.89 172.19,16.39 172.86,15.97 173.56,15.63 174.29,15.39 175.04,15.24 175.78,15.18 176.52,15.21 177.24,15.33 177.94,15.54 178.59,15.82 179.19,16.17 179.74,16.60 180.23,17.07 180.65,17.60 181.00,18.16 181.27,18.76 181.47,19.37 181.58,20.00 181.62,20.62 181.58,21.24 181.47,21.83 181.29,22.40 181.05,22.93 180.75,23.42 180.39,23.87 179.99,24.26 179.56,24.59 179.09,24.86 178.61,25.07 178.11,25.21 177.61,25.29 177.11,25.31 176.62,25.26 176.15,25.16 175.70,25.01 175.29,24.80 174.91,24.55 174.58,24.26 174.29,23.94 174.04,23.60 173.85,23.23 173.71,22.85 173.61,22.47 173.57,22.09 173.58,21.71 173.63,21.35 173.72,21.01 173.86,20.68 174.02,20.39 174.22,20.13 174.45,19.90 174.69,19.71 174.95,19.56 175.21,19.44" fill="none" stroke="#b3332b" stroke-width="1.6" stroke-linecap="round" stroke-linejoin="round"/><polyline points="169.43,21.29 169.30,20.44 169.06,19.63 168.74,18.85 168.33,18.14 167.84,17.48 167.28,16.89 166.66,16.39 166.00,15.97 165.29,15.63 164.56,15.39 163.82,15.24 163.07,15.18 162.33,15.21 161.61,15.33 160.92,15.54 160.27,15.82 159.66,16.17 159.11,16.60 158.62,17.07 158.20,17.60 157.86,18.16 157.58,18.76 157.39,19.37 157.27,20.00 157.23,20.62 157.27,21.24 157.38,21.83 157.56,22.40 157.81,22.93 158.11,23.42 158.46,23.87 158.86,24.26 159.30,24.59 159.76,24.86 160.25,25.07 160.75,25.21 161.25,25.29 161.75,25.31 162.24,25.26 162.71,25.16 163.15,25.01 163.56,24.80 163.94,24.55 164.28,24.26 164.57,23.94 164.81,23.60 165.00,23.23 165.15,22.85 165.24,22.47 165.28,22.09 165.28,21.71 165.23,21.35 165.13,21.01 165.00,20.68 164.83,20.39 164.63,20.13 164.41,19.90 164.16,19.71 163.91,19.56 163.64,19.44" fill="none" stroke="#b3332b" stroke-width="1.6" stroke-linecap="round" stroke-linejoin="round"/><polygon points="169.43,19.25 169.88,18.25 170.43,17.26 171.01,16.26 171.57,15.26 172.06,14.26 172.43,13.26 172.64,12.27 172.62,11.27 172.34,10.27 171.77,9.27 170.87,8.27 169.43,7.28 167.99,8.27 167.09,9.27 166.51,10.27 166.23,11.27 166.22,12.27 166.42,13.26 166.80,14.26 167.29,15.26 167.85,16.26 168.42,17.26 168.98,18.25" fill="#d39b35"/><polygon points="169.43,20.69 169.73,19.76 169.73,19.05 169.63,18.41 169.47,17.81 169.26,17.25 169.00,16.72 168.71,16.22 168.39,15.74 168.04,15.28 167.67,14.83 167.28,14.40 166.81,14.03 166.55,14.92 166.42,15.72 166.35,16.48 166.34,17.20 166.40,17.87 166.52,18.49 166.72,19.06 167.01,19.57 167.38,20.01 167.86,20.38 168.47,20.66" fill="#2b8796"/><polygon points="169.43,20.69 170.38,20.66 170.99,20.38 171.47,20.01 171.85,19.57 172.13,19.06 172.33,18.49 172.46,17.87 172.51,17.20 172.50,16.48 172.43,15.72 172.30,14.92 172.05,14.03 171.58,14.40 171.18,14.83 170.82,15.28 170.47,15.74 170.15,16.22 169.85,16.72 169.60,17.25 169.38,17.81 169.22,18.41 169.13,19.05 169.12,19.76" fill="#2b8796"/><polygon points="169.43,42.67 169.13,41.39 168.60,40.38 168.00,39.43 167.36,38.54 166.70,37.68 166.00,36.85 165.28,36.05 164.55,35.26 163.81,34.49 163.06,33.72 162.30,32.97 161.48,32.28 161.73,33.61 162.08,34.83 162.49,35.99 162.96,37.08 163.48,38.10 164.06,39.06 164.72,39.94 165.44,40.73 166.24,41.43 167.14,42.04 168.14,42.51" fill="#4f6b3a"/><polygon points="169.43,42.67 170.71,42.51 171.72,42.04 172.61,41.43 173.41,40.73 174.14,39.94 174.79,39.06 175.38,38.10 175.90,37.08 176.36,35.99 176.77,34.83 177.12,33.61 177.37,32.28 176.56,32.97 175.80,33.72 175.05,34.49 174.30,35.26 173.57,36.05 172.86,36.85 172.16,37.68 171.49,38.54 170.85,39.43 170.26,40.38 169.73,41.39" fill="#4f6b3a"/><polygon points="197.98,30.39 197.55,29.52 197.08,28.69 196.58,27.91 196.05,27.17 195.47,26.50 194.84,25.91 194.15,25.40 193.39,24.99 192.56,24.67 191.66,24.45 190.69,24.33 189.59,24.40 189.88,25.46 190.31,26.34 190.81,27.12 191.38,27.80 192.02,28.38 192.73,28.87 193.49,29.28 194.32,29.61 195.18,29.87 196.09,30.09 197.02,30.26" fill="#d39b35"/><polygon points="197.98,30.39 197.15,29.63 196.31,28.93 195.45,28.28 194.57,27.68 193.66,27.16 192.73,26.73 191.76,26.40 190.76,26.17 189.72,26.06 188.64,26.07 187.52,26.19 186.33,26.53 187.08,27.51 187.90,28.27 188.77,28.92 189.67,29.45 190.61,29.87 191.58,30.19 192.59,30.40 193.63,30.52 194.69,30.57 195.77,30.56 196.87,30.50" fill="#1f2c4c"/><polygon points="197.98,30.39 197.09,29.91 196.20,29.50 195.31,29.13 194.41,28.82 193.52,28.59 192.62,28.46 191.72,28.43 190.82,28.52 189.91,28.72 189.00,29.04 188.09,29.49 187.18,30.17 188.07,30.89 188.96,31.37 189.85,31.73 190.75,31.97 191.64,32.09 192.54,32.10 193.45,32.00 194.35,31.81 195.26,31.54 196.16,31.21 197.07,30.83" fill="#d39b35"/><polygon points="215.52,27.82 215.47,29.23 214.83,30.64 213.64,31.98 211.99,33.13 209.99,34.04 207.77,34.62 204.86,33.55 202.30,33.36 200.06,33.01 198.31,32.54 197.16,31.95 196.67,31.25 196.88,30.43 197.76,29.47 199.23,28.41 201.20,27.30 203.53,26.22 206.07,25.30 208.15,23.96 210.35,24.10 212.30,24.60 213.88,25.43 214.97,26.53" fill="#2b8796"/><polygon points="218.11,23.27 217.92,24.36 217.37,25.32 216.52,26.03 215.48,26.41 214.37,26.41 213.33,26.03 212.48,25.32 211.92,24.36 211.73,23.27 211.92,22.18 212.48,21.22 213.33,20.50 214.37,20.12 215.48,20.12 216.52,20.50 217.37,21.22 217.92,22.18" fill="#2b8796"/><polygon points="217.38,22.41 221.55,23.51 217.38,24.74" fill="#b3332b"/><polygon points="210.26,28.42 208.82,27.35 207.64,27.03 206.53,26.92 205.46,26.96 204.43,27.11 203.44,27.35 202.46,27.67 201.51,28.06 200.58,28.49 199.66,28.97 198.76,29.50 197.91,30.19 199.22,30.91 200.47,31.40 201.67,31.79 202.85,32.08 203.98,32.25 205.08,32.31 206.13,32.23 207.13,32.00 208.08,31.60 208.95,30.99 209.74,30.11" fill="#1f2c4c"/><polyline points="205.35,33.83 205.35,38.74 208.29,39.23" fill="none" stroke="#b3332b" stroke-width="0.9" stroke-linecap="round" stroke-linejoin="round"/><polyline points="208.29,33.83 208.29,38.74 211.24,39.23" fill="none" stroke="#b3332b" stroke-width="0.9" stroke-linecap="round" stroke-linejoin="round"/><polyline points="125.00,30.00 125.00,24.00" fill="none" stroke="#b3332b" stroke-width="1" stroke-linecap="round" stroke-linejoin="round"/><polyline points="125.00,30.00 130.20,27.00" fill="none" stroke="#b3332b" stroke-width="1" stroke-linecap="round" stroke-linejoin="round"/><polyline points="125.00,30.00 130.20,33.00" fill="none" stroke="#b3332b" stroke-width="1" stroke-linecap="round" stroke-linejoin="round"/><polyline points="125.00,30.00 125.00,36.00" fill="none" stroke="#b3332b" stroke-width="1" stroke-linecap="round" stroke-linejoin="round"/><polyline points="125.00,30.00 119.80,33.00" fill="none" stroke="#b3332b" stroke-width="1" stroke-linecap="round" stroke-linejoin="round"/><polyline points="125.00,30.00 119.80,27.00" fill="none" stroke="#b3332b" stroke-width="1" stroke-linecap="round" stroke-linejoin="round"/><polygon points="126.20,30.00 126.13,30.41 125.92,30.77 125.60,31.04 125.21,31.18 124.79,31.18 124.40,31.04 124.08,30.77 123.87,30.41 123.80,30.00 123.87,29.59 124.08,29.23 124.40,28.96 124.79,28.82 125.21,28.82 125.60,28.96 125.92,29.23 126.13,29.59" fill="#b3332b"/><polygon points="145.80,40.18 145.86,39.21 145.69,38.42 145.43,37.70 145.11,37.03 144.72,36.40 144.27,35.82 143.77,35.29 143.21,34.79 142.61,34.33 141.97,33.90 141.28,33.51 140.49,33.19 140.58,34.04 140.78,34.81 141.02,35.54 141.30,36.24 141.64,36.91 142.02,37.54 142.45,38.13 142.95,38.67 143.51,39.16 144.14,39.60 144.86,39.97" fill="#4f6b3a"/><polygon points="145.80,40.18 146.43,39.44 146.77,38.71 147.01,37.98 147.16,37.25 147.22,36.52 147.22,35.79 147.14,35.06 147.00,34.33 146.80,33.59 146.55,32.86 146.24,32.13 145.80,31.40 145.36,32.13 145.05,32.86 144.80,33.59 144.60,34.33 144.46,35.06 144.38,35.79 144.38,36.52 144.44,37.25 144.59,37.98 144.83,38.71 145.17,39.44" fill="#2b8796"/><polygon points="145.80,40.18 146.74,39.97 147.46,39.60 148.09,39.16 148.65,38.67 149.15,38.13 149.58,37.54 149.96,36.91 150.30,36.24 150.58,35.54 150.82,34.81 151.02,34.04 151.11,33.19 150.32,33.51 149.63,33.90 148.99,34.33 148.39,34.79 147.83,35.29 147.33,35.82 146.88,36.40 146.49,37.03 146.17,37.70 145.91,38.42 145.74,39.21" fill="#4f6b3a"/><polygon points="146.84,40.50 146.78,40.86 146.60,41.17 146.32,41.40 145.98,41.52 145.62,41.52 145.28,41.40 145.00,41.17 144.82,40.86 144.76,40.50 144.82,40.14 145.00,39.83 145.28,39.60 145.62,39.48 145.98,39.48 146.32,39.60 146.60,39.83 146.78,40.14" fill="#b3332b"/><polygon points="104.20,40.58 104.26,39.61 104.09,38.82 103.83,38.10 103.51,37.43 103.12,36.80 102.67,36.22 102.17,35.69 101.61,35.19 101.01,34.73 100.37,34.30 99.68,33.91 98.89,33.59 98.98,34.44 99.18,35.21 99.42,35.94 99.70,36.64 100.04,37.31 100.42,37.94 100.85,38.53 101.35,39.07 101.91,39.56 102.54,40.00 103.26,40.37" fill="#4f6b3a"/><polygon points="104.20,40.58 104.83,39.84 105.17,39.11 105.41,38.38 105.56,37.65 105.62,36.92 105.62,36.19 105.54,35.46 105.40,34.73 105.20,33.99 104.95,33.26 104.64,32.53 104.20,31.80 103.76,32.53 103.45,33.26 103.20,33.99 103.00,34.73 102.86,35.46 102.78,36.19 102.78,36.92 102.84,37.65 102.99,38.38 103.23,39.11 103.57,39.84" fill="#2b8796"/><polygon points="104.20,40.58 105.14,40.37 105.86,40.00 106.49,39.56 107.05,39.07 107.55,38.53 107.98,37.94 108.36,37.31 108.70,36.64 108.98,35.94 109.22,35.21 109.42,34.44 109.51,33.59 108.72,33.91 108.03,34.30 107.39,34.73 106.79,35.19 106.23,35.69 105.73,36.22 105.28,36.80 104.89,37.43 104.57,38.10 104.31,38.82 104.14,39.61" fill="#4f6b3a"/><polygon points="105.24,40.90 105.18,41.26 105.00,41.57 104.72,41.80 104.38,41.92 104.02,41.92 103.68,41.80 103.40,41.57 103.22,41.26 103.16,40.90 103.22,40.54 103.40,40.23 103.68,40.00 104.02,39.88 104.38,39.88 104.72,40.00 105.00,40.23 105.18,40.54" fill="#b3332b"/><polygon points="227.80,41.38 227.86,40.41 227.69,39.62 227.43,38.90 227.11,38.23 226.72,37.60 226.27,37.02 225.77,36.49 225.21,35.99 224.61,35.53 223.97,35.10 223.28,34.71 222.49,34.39 222.58,35.24 222.78,36.01 223.02,36.74 223.30,37.44 223.64,38.11 224.02,38.74 224.45,39.33 224.95,39.87 225.51,40.36 226.14,40.80 226.86,41.17" fill="#4f6b3a"/><polygon points="227.80,41.38 228.43,40.64 228.77,39.91 229.01,39.18 229.16,38.45 229.22,37.72 229.22,36.99 229.14,36.26 229.00,35.53 228.80,34.79 228.55,34.06 228.24,33.33 227.80,32.60 227.36,33.33 227.05,34.06 226.80,34.79 226.60,35.53 226.46,36.26 226.38,36.99 226.38,37.72 226.44,38.45 226.59,39.18 226.83,39.91 227.17,40.64" fill="#2b8796"/><polygon points="227.80,41.38 228.74,41.17 229.46,40.80 230.09,40.36 230.65,39.87 231.15,39.33 231.58,38.74 231.96,38.11 232.30,37.44 232.58,36.74 232.82,36.01 233.02,35.24 233.11,34.39 232.32,34.71 231.63,35.10 230.99,35.53 230.39,35.99 229.83,36.49 229.33,37.02 228.88,37.60 228.49,38.23 228.17,38.90 227.91,39.62 227.74,40.41" fill="#4f6b3a"/><polygon points="228.84,41.70 228.78,42.06 228.60,42.37 228.32,42.60 227.98,42.72 227.62,42.72 227.28,42.60 227.00,42.37 226.82,42.06 226.76,41.70 226.82,41.34 227.00,41.03 227.28,40.80 227.62,40.68 227.98,40.68 228.32,40.80 228.60,41.03 228.78,41.34" fill="#b3332b"/><polygon points="22.60,41.38 22.66,40.41 22.49,39.62 22.23,38.90 21.91,38.23 21.52,37.60 21.07,37.02 20.57,36.49 20.01,35.99 19.41,35.53 18.77,35.10 18.08,34.71 17.29,34.39 17.38,35.24 17.58,36.01 17.82,36.74 18.10,37.44 18.44,38.11 18.82,38.74 19.25,39.33 19.75,39.87 20.31,40.36 20.94,40.80 21.66,41.17" fill="#4f6b3a"/><polygon points="22.60,41.38 23.23,40.64 23.57,39.91 23.81,39.18 23.96,38.45 24.02,37.72 24.02,36.99 23.94,36.26 23.80,35.53 23.60,34.79 23.35,34.06 23.04,33.33 22.60,32.60 22.16,33.33 21.85,34.06 21.60,34.79 21.40,35.53 21.26,36.26 21.18,36.99 21.18,37.72 21.24,38.45 21.39,39.18 21.63,39.91 21.97,40.64" fill="#2b8796"/><polygon points="22.60,41.38 23.54,41.17 24.26,40.80 24.89,40.36 25.45,39.87 25.95,39.33 26.38,38.74 26.76,38.11 27.10,37.44 27.38,36.74 27.62,36.01 27.82,35.24 27.91,34.39 27.12,34.71 26.43,35.10 25.79,35.53 25.19,35.99 24.63,36.49 24.13,37.02 23.68,37.60 23.29,38.23 22.97,38.90 22.71,39.62 22.54,40.41" fill="#4f6b3a"/><polygon points="23.64,41.70 23.58,42.06 23.40,42.37 23.12,42.60 22.78,42.72 22.42,42.72 22.08,42.60 21.80,42.37 21.62,42.06 21.56,41.70 21.62,41.34 21.80,41.03 22.08,40.80 22.42,40.68 22.78,40.68 23.12,40.80 23.40,41.03 23.58,41.34" fill="#b3332b"/><polyline points="108.60,24.10 104.00,32.15" fill="none" stroke="#4f6b3a" stroke-width="0.9" stroke-linecap="round" stroke-linejoin="round"/><polygon points="108.60,23.77 108.66,22.81 108.49,22.02 108.23,21.30 107.91,20.63 107.52,20.00 107.07,19.42 106.57,18.89 106.01,18.39 105.41,17.93 104.77,17.50 104.08,17.11 103.29,16.79 103.38,17.64 103.58,18.41 103.82,19.14 104.10,19.84 104.44,20.51 104.82,21.14 105.25,21.73 105.75,22.27 106.31,22.76 106.94,23.20 107.66,23.57" fill="#4f6b3a"/><polygon points="108.60,23.77 109.23,23.04 109.57,22.31 109.81,21.58 109.96,20.85 110.02,20.12 110.02,19.39 109.94,18.66 109.80,17.92 109.60,17.19 109.35,16.46 109.04,15.73 108.60,15.00 108.16,15.73 107.85,16.46 107.60,17.19 107.40,17.92 107.26,18.66 107.18,19.39 107.18,20.12 107.24,20.85 107.39,21.58 107.63,22.31 107.97,23.04" fill="#2b8796"/><polygon points="108.60,23.77 109.54,23.57 110.26,23.20 110.89,22.76 111.45,22.27 111.95,21.73 112.38,21.14 112.76,20.51 113.10,19.84 113.38,19.14 113.62,18.41 113.82,17.64 113.91,16.79 113.12,17.11 112.43,17.50 111.79,17.93 111.19,18.39 110.63,18.89 110.13,19.42 109.68,20.00 109.29,20.63 108.97,21.30 108.71,22.02 108.54,22.81" fill="#4f6b3a"/><polygon points="109.64,24.10 109.58,24.46 109.40,24.77 109.12,25.00 108.78,25.12 108.42,25.12 108.08,25.00 107.80,24.77 107.62,24.46 107.56,24.10 107.62,23.74 107.80,23.43 108.08,23.20 108.42,23.08 108.78,23.08 109.12,23.20 109.40,23.43 109.58,23.74" fill="#b3332b"/><polyline points="141.40,24.10 146.01,31.74" fill="none" stroke="#4f6b3a" stroke-width="0.9" stroke-linecap="round" stroke-linejoin="round"/><polygon points="141.40,23.77 141.46,22.81 141.29,22.02 141.03,21.30 140.71,20.63 140.32,20.00 139.87,19.42 139.37,18.89 138.81,18.39 138.21,17.93 137.57,17.50 136.88,17.11 136.09,16.79 136.18,17.64 136.38,18.41 136.62,19.14 136.90,19.84 137.24,20.51 137.62,21.14 138.05,21.73 138.55,22.27 139.11,22.76 139.74,23.20 140.46,23.57" fill="#4f6b3a"/><polygon points="141.40,23.77 142.03,23.04 142.37,22.31 142.61,21.58 142.76,20.85 142.82,20.12 142.82,19.39 142.74,18.66 142.60,17.92 142.40,17.19 142.15,16.46 141.84,15.73 141.40,15.00 140.96,15.73 140.65,16.46 140.40,17.19 140.20,17.92 140.06,18.66 139.98,19.39 139.98,20.12 140.04,20.85 140.19,21.58 140.43,22.31 140.77,23.04" fill="#2b8796"/><polygon points="141.40,23.77 142.34,23.57 143.06,23.20 143.69,22.76 144.25,22.27 144.75,21.73 145.18,21.14 145.56,20.51 145.90,19.84 146.18,19.14 146.42,18.41 146.62,17.64 146.71,16.79 145.92,17.11 145.23,17.50 144.59,17.93 143.99,18.39 143.43,18.89 142.93,19.42 142.48,20.00 142.09,20.63 141.77,21.30 141.51,22.02 141.34,22.81" fill="#4f6b3a"/><polygon points="142.44,24.10 142.38,24.46 142.20,24.77 141.92,25.00 141.58,25.12 141.22,25.12 140.88,25.00 140.60,24.77 140.42,24.46 140.36,24.10 140.42,23.74 140.60,23.43 140.88,23.20 141.22,23.08 141.58,23.08 141.92,23.20 142.20,23.43 142.38,23.74" fill="#b3332b"/><polyline points="19.00,22.90 22.74,32.98" fill="none" stroke="#4f6b3a" stroke-width="0.9" stroke-linecap="round" stroke-linejoin="round"/><polygon points="19.00,22.57 19.06,21.61 18.89,20.82 18.63,20.10 18.31,19.43 17.92,18.80 17.47,18.22 16.97,17.69 16.41,17.19 15.81,16.73 15.17,16.30 14.48,15.91 13.69,15.59 13.78,16.44 13.98,17.21 14.22,17.94 14.50,18.64 14.84,19.31 15.22,19.94 15.65,20.53 16.15,21.07 16.71,21.56 17.34,22.00 18.06,22.37" fill="#4f6b3a"/><polygon points="19.00,22.57 19.63,21.84 19.97,21.11 20.21,20.38 20.36,19.65 20.42,18.92 20.42,18.19 20.34,17.46 20.20,16.73 20.00,15.99 19.75,15.26 19.44,14.53 19.00,13.80 18.56,14.53 18.25,15.26 18.00,15.99 17.80,16.73 17.66,17.46 17.58,18.19 17.58,18.92 17.64,19.65 17.79,20.38 18.03,21.11 18.37,21.84" fill="#2b8796"/><polygon points="19.00,22.57 19.94,22.37 20.66,22.00 21.29,21.56 21.85,21.07 22.35,20.53 22.78,19.94 23.16,19.31 23.50,18.64 23.78,17.94 24.02,17.21 24.22,16.44 24.31,15.59 23.52,15.91 22.83,16.30 22.19,16.73 21.59,17.19 21.03,17.69 20.53,18.22 20.08,18.80 19.69,19.43 19.37,20.10 19.11,20.82 18.94,21.61" fill="#4f6b3a"/><polygon points="20.04,22.90 19.98,23.26 19.80,23.57 19.52,23.80 19.18,23.92 18.82,23.92 18.48,23.80 18.20,23.57 18.02,23.26 17.96,22.90 18.02,22.54 18.20,22.23 18.48,22.00 18.82,21.88 19.18,21.88 19.52,22.00 19.80,22.23 19.98,22.54" fill="#b3332b"/><polyline points="231.40,22.90 221.00,23.42" fill="none" stroke="#4f6b3a" stroke-width="0.9" stroke-linecap="round" stroke-linejoin="round"/><polygon points="231.40,22.57 231.46,21.61 231.29,20.82 231.03,20.10 230.71,19.43 230.32,18.80 229.87,18.22 229.37,17.69 228.81,17.19 228.21,16.73 227.57,16.30 226.88,15.91 226.09,15.59 226.18,16.44 226.38,17.21 226.62,17.94 226.90,18.64 227.24,19.31 227.62,19.94 228.05,20.53 228.55,21.07 229.11,21.56 229.74,22.00 230.46,22.37" fill="#4f6b3a"/><polygon points="231.40,22.57 232.03,21.84 232.37,21.11 232.61,20.38 232.76,19.65 232.82,18.92 232.82,18.19 232.74,17.46 232.60,16.73 232.40,15.99 232.15,15.26 231.84,14.53 231.40,13.80 230.96,14.53 230.65,15.26 230.40,15.99 230.20,16.73 230.06,17.46 229.98,18.19 229.98,18.92 230.04,19.65 230.19,20.38 230.43,21.11 230.77,21.84" fill="#2b8796"/><polygon points="231.40,22.57 232.34,22.37 233.06,22.00 233.69,21.56 234.25,21.07 234.75,20.53 235.18,19.94 235.56,19.31 235.90,18.64 236.18,17.94 236.42,17.21 236.62,16.44 236.71,15.59 235.92,15.91 235.23,16.30 234.59,16.73 233.99,17.19 233.43,17.69 232.93,18.22 232.48,18.80 232.09,19.43 231.77,20.10 231.51,20.82 231.34,21.61" fill="#4f6b3a"/><polygon points="232.44,22.90 232.38,23.26 232.20,23.57 231.92,23.80 231.58,23.92 231.22,23.92 230.88,23.80 230.60,23.57 230.42,23.26 230.36,22.90 230.42,22.54 230.60,22.23 230.88,22.00 231.22,21.88 231.58,21.88 231.92,22.00 232.20,22.23 232.38,22.54" fill="#b3332b"/><polyline points="61.00,45.70 49.45,39.20" fill="none" stroke="#4f6b3a" stroke-width="0.9" stroke-linecap="round" stroke-linejoin="round"/><polygon points="61.00,45.38 61.06,44.41 60.89,43.62 60.63,42.90 60.31,42.23 59.92,41.60 59.47,41.02 58.97,40.49 58.41,39.99 57.81,39.53 57.17,39.10 56.48,38.71 55.69,38.39 55.78,39.24 55.98,40.01 56.22,40.74 56.50,41.44 56.84,42.11 57.22,42.74 57.65,43.33 58.15,43.87 58.71,44.36 59.34,44.80 60.06,45.17" fill="#4f6b3a"/><polygon points="61.00,45.38 61.63,44.64 61.97,43.91 62.21,43.18 62.36,42.45 62.42,41.72 62.42,40.99 62.34,40.26 62.20,39.53 62.00,38.79 61.75,38.06 61.44,37.33 61.00,36.60 60.56,37.33 60.25,38.06 60.00,38.79 59.80,39.53 59.66,40.26 59.58,40.99 59.58,41.72 59.64,42.45 59.79,43.18 60.03,43.91 60.37,44.64" fill="#2b8796"/><polygon points="61.00,45.38 61.94,45.17 62.66,44.80 63.29,44.36 63.85,43.87 64.35,43.33 64.78,42.74 65.16,42.11 65.50,41.44 65.78,40.74 66.02,40.01 66.22,39.24 66.31,38.39 65.52,38.71 64.83,39.10 64.19,39.53 63.59,39.99 63.03,40.49 62.53,41.02 62.08,41.60 61.69,42.23 61.37,42.90 61.11,43.62 60.94,44.41" fill="#4f6b3a"/><polygon points="62.04,45.70 61.98,46.06 61.80,46.37 61.52,46.60 61.18,46.72 60.82,46.72 60.48,46.60 60.20,46.37 60.02,46.06 59.96,45.70 60.02,45.34 60.20,45.03 60.48,44.80 60.82,44.68 61.18,44.68 61.52,44.80 61.80,45.03 61.98,45.34" fill="#b3332b"/><polyline points="185.80,45.70 174.66,38.79" fill="none" stroke="#4f6b3a" stroke-width="0.9" stroke-linecap="round" stroke-linejoin="round"/><polygon points="185.80,45.38 185.86,44.41 185.69,43.62 185.43,42.90 185.11,42.23 184.72,41.60 184.27,41.02 183.77,40.49 183.21,39.99 182.61,39.53 181.97,39.10 181.28,38.71 180.49,38.39 180.58,39.24 180.78,40.01 181.02,40.74 181.30,41.44 181.64,42.11 182.02,42.74 182.45,43.33 182.95,43.87 183.51,44.36 184.14,44.80 184.86,45.17" fill="#4f6b3a"/><polygon points="185.80,45.38 186.43,44.64 186.77,43.91 187.01,43.18 187.16,42.45 187.22,41.72 187.22,40.99 187.14,40.26 187.00,39.53 186.80,38.79 186.55,38.06 186.24,37.33 185.80,36.60 185.36,37.33 185.05,38.06 184.80,38.79 184.60,39.53 184.46,40.26 184.38,40.99 184.38,41.72 184.44,42.45 184.59,43.18 184.83,43.91 185.17,44.64" fill="#2b8796"/><polygon points="185.80,45.38 186.74,45.17 187.46,44.80 188.09,44.36 188.65,43.87 189.15,43.33 189.58,42.74 189.96,42.11 190.30,41.44 190.58,40.74 190.82,40.01 191.02,39.24 191.11,38.39 190.32,38.71 189.63,39.10 188.99,39.53 188.39,39.99 187.83,40.49 187.33,41.02 186.88,41.60 186.49,42.23 186.17,42.90 185.91,43.62 185.74,44.41" fill="#4f6b3a"/><polygon points="186.84,45.70 186.78,46.06 186.60,46.37 186.32,46.60 185.98,46.72 185.62,46.72 185.28,46.60 185.00,46.37 184.82,46.06 184.76,45.70 184.82,45.34 185.00,45.03 185.28,44.80 185.62,44.68 185.98,44.68 186.32,44.80 186.60,45.03 186.78,45.34" fill="#b3332b"/><polyline points="116.60,46.90 107.51,38.33" fill="none" stroke="#4f6b3a" stroke-width="0.9" stroke-linecap="round" stroke-linejoin="round"/><polygon points="116.60,46.58 116.66,45.61 116.49,44.82 116.23,44.10 115.91,43.43 115.52,42.80 115.07,42.22 114.57,41.69 114.01,41.19 113.41,40.73 112.77,40.30 112.08,39.91 111.29,39.59 111.38,40.44 111.58,41.21 111.82,41.94 112.10,42.64 112.44,43.31 112.82,43.94 113.25,44.53 113.75,45.07 114.31,45.56 114.94,46.00 115.66,46.37" fill="#4f6b3a"/><polygon points="116.60,46.58 117.23,45.84 117.57,45.11 117.81,44.38 117.96,43.65 118.02,42.92 118.02,42.19 117.94,41.46 117.80,40.73 117.60,39.99 117.35,39.26 117.04,38.53 116.60,37.80 116.16,38.53 115.85,39.26 115.60,39.99 115.40,40.73 115.26,41.46 115.18,42.19 115.18,42.92 115.24,43.65 115.39,44.38 115.63,45.11 115.97,45.84" fill="#2b8796"/><polygon points="116.60,46.58 117.54,46.37 118.26,46.00 118.89,45.56 119.45,45.07 119.95,44.53 120.38,43.94 120.76,43.31 121.10,42.64 121.38,41.94 121.62,41.21 121.82,40.44 121.91,39.59 121.12,39.91 120.43,40.30 119.79,40.73 119.19,41.19 118.63,41.69 118.13,42.22 117.68,42.80 117.29,43.43 116.97,44.10 116.71,44.82 116.54,45.61" fill="#4f6b3a"/><polygon points="117.64,46.90 117.58,47.26 117.40,47.57 117.12,47.80 116.78,47.92 116.42,47.92 116.08,47.80 115.80,47.57 115.62,47.26 115.56,46.90 115.62,46.54 115.80,46.23 116.08,46.00 116.42,45.88 116.78,45.88 117.12,46.00 117.40,46.23 117.58,46.54" fill="#b3332b"/><polyline points="133.00,46.90 121.44,41.22" fill="none" stroke="#4f6b3a" stroke-width="0.9" stroke-linecap="round" stroke-linejoin="round"/><polygon points="133.00,46.58 133.06,45.61 132.89,44.82 132.63,44.10 132.31,43.43 131.92,42.80 131.47,42.22 130.97,41.69 130.41,41.19 129.81,40.73 129.17,40.30 128.48,39.91 127.69,39.59 127.78,40.44 127.98,41.21 128.22,41.94 128.50,42.64 128.84,43.31 129.22,43.94 129.65,44.53 130.15,45.07 130.71,45.56 131.34,46.00 132.06,46.37" fill="#4f6b3a"/><polygon points="133.00,46.58 133.63,45.84 133.97,45.11 134.21,44.38 134.36,43.65 134.42,42.92 134.42,42.19 134.34,41.46 134.20,40.73 134.00,39.99 133.75,39.26 133.44,38.53 133.00,37.80 132.56,38.53 132.25,39.26 132.00,39.99 131.80,40.73 131.66,41.46 131.58,42.19 131.58,42.92 131.64,43.65 131.79,44.38 132.03,45.11 132.37,45.84" fill="#2b8796"/><polygon points="133.00,46.58 133.94,46.37 134.66,46.00 135.29,45.56 135.85,45.07 136.35,44.53 136.78,43.94 137.16,43.31 137.50,42.64 137.78,41.94 138.02,41.21 138.22,40.44 138.31,39.59 137.52,39.91 136.83,40.30 136.19,40.73 135.59,41.19 135.03,41.69 134.53,42.22 134.08,42.80 133.69,43.43 133.37,44.10 133.11,44.82 132.94,45.61" fill="#4f6b3a"/><polygon points="134.04,46.90 133.98,47.26 133.80,47.57 133.52,47.80 133.18,47.92 132.82,47.92 132.48,47.80 132.20,47.57 132.02,47.26 131.96,46.90 132.02,46.54 132.20,46.23 132.48,46.00 132.82,45.88 133.18,45.88 133.52,46.00 133.80,46.23 133.98,46.54" fill="#b3332b"/><polyline points="74.60,21.30 81.75,25.19" fill="none" stroke="#4f6b3a" stroke-width="0.9" stroke-linecap="round" stroke-linejoin="round"/><polygon points="74.60,20.97 74.66,20.01 74.49,19.22 74.23,18.50 73.91,17.83 73.52,17.20 73.07,16.62 72.57,16.09 72.01,15.59 71.41,15.13 70.77,14.70 70.08,14.31 69.29,13.99 69.38,14.84 69.58,15.61 69.82,16.34 70.10,17.04 70.44,17.71 70.82,18.34 71.25,18.93 71.75,19.47 72.31,19.96 72.94,20.40 73.66,20.77" fill="#4f6b3a"/><polygon points="74.60,20.97 75.23,20.24 75.57,19.51 75.81,18.78 75.96,18.05 76.02,17.32 76.02,16.59 75.94,15.86 75.80,15.12 75.60,14.39 75.35,13.66 75.04,12.93 74.60,12.20 74.16,12.93 73.85,13.66 73.60,14.39 73.40,15.12 73.26,15.86 73.18,16.59 73.18,17.32 73.24,18.05 73.39,18.78 73.63,19.51 73.97,20.24" fill="#2b8796"/><polygon points="74.60,20.97 75.54,20.77 76.26,20.40 76.89,19.96 77.45,19.47 77.95,18.93 78.38,18.34 78.76,17.71 79.10,17.04 79.38,16.34 79.62,15.61 79.82,14.84 79.91,13.99 79.12,14.31 78.43,14.70 77.79,15.13 77.19,15.59 76.63,16.09 76.13,16.62 75.68,17.20 75.29,17.83 74.97,18.50 74.71,19.22 74.54,20.01" fill="#4f6b3a"/><polygon points="75.64,21.30 75.58,21.66 75.40,21.97 75.12,22.20 74.78,22.32 74.42,22.32 74.08,22.20 73.80,21.97 73.62,21.66 73.56,21.30 73.62,20.94 73.80,20.63 74.08,20.40 74.42,20.28 74.78,20.28 75.12,20.40 75.40,20.63 75.58,20.94" fill="#b3332b"/><polyline points="199.80,21.30 206.55,25.20" fill="none" stroke="#4f6b3a" stroke-width="0.9" stroke-linecap="round" stroke-linejoin="round"/><polygon points="199.80,20.97 199.86,20.01 199.69,19.22 199.43,18.50 199.11,17.83 198.72,17.20 198.27,16.62 197.77,16.09 197.21,15.59 196.61,15.13 195.97,14.70 195.28,14.31 194.49,13.99 194.58,14.84 194.78,15.61 195.02,16.34 195.30,17.04 195.64,17.71 196.02,18.34 196.45,18.93 196.95,19.47 197.51,19.96 198.14,20.40 198.86,20.77" fill="#4f6b3a"/><polygon points="199.80,20.97 200.43,20.24 200.77,19.51 201.01,18.78 201.16,18.05 201.22,17.32 201.22,16.59 201.14,15.86 201.00,15.12 200.80,14.39 200.55,13.66 200.24,12.93 199.80,12.20 199.36,12.93 199.05,13.66 198.80,14.39 198.60,15.12 198.46,15.86 198.38,16.59 198.38,17.32 198.44,18.05 198.59,18.78 198.83,19.51 199.17,20.24" fill="#2b8796"/><polygon points="199.80,20.97 200.74,20.77 201.46,20.40 202.09,19.96 202.65,19.47 203.15,18.93 203.58,18.34 203.96,17.71 204.30,17.04 204.58,16.34 204.82,15.61 205.02,14.84 205.11,13.99 204.32,14.31 203.63,14.70 202.99,15.13 202.39,15.59 201.83,16.09 201.33,16.62 200.88,17.20 200.49,17.83 200.17,18.50 199.91,19.22 199.74,20.01" fill="#4f6b3a"/><polygon points="200.84,21.30 200.78,21.66 200.60,21.97 200.32,22.20 199.98,22.32 199.62,22.32 199.28,22.20 199.00,21.97 198.82,21.66 198.76,21.30 198.82,20.94 199.00,20.63 199.28,20.40 199.62,20.28 199.98,20.28 200.32,20.40 200.60,20.63 200.78,20.94" fill="#b3332b"/><polyline points="156.20,48.10 165.72,40.76" fill="none" stroke="#4f6b3a" stroke-width="0.9" stroke-linecap="round" stroke-linejoin="round"/><polygon points="156.20,47.78 156.26,46.81 156.09,46.02 155.83,45.30 155.51,44.63 155.12,44.00 154.67,43.42 154.17,42.89 153.61,42.39 153.01,41.93 152.37,41.50 151.68,41.11 150.89,40.79 150.98,41.64 151.18,42.41 151.42,43.14 151.70,43.84 152.04,44.51 152.42,45.14 152.85,45.73 153.35,46.27 153.91,46.76 154.54,47.20 155.26,47.57" fill="#4f6b3a"/><polygon points="156.20,47.78 156.83,47.04 157.17,46.31 157.41,45.58 157.56,44.85 157.62,44.12 157.62,43.39 157.54,42.66 157.40,41.93 157.20,41.19 156.95,40.46 156.64,39.73 156.20,39.00 155.76,39.73 155.45,40.46 155.20,41.19 155.00,41.93 154.86,42.66 154.78,43.39 154.78,44.12 154.84,44.85 154.99,45.58 155.23,46.31 155.57,47.04" fill="#2b8796"/><polygon points="156.20,47.78 157.14,47.57 157.86,47.20 158.49,46.76 159.05,46.27 159.55,45.73 159.98,45.14 160.36,44.51 160.70,43.84 160.98,43.14 161.22,42.41 161.42,41.64 161.51,40.79 160.72,41.11 160.03,41.50 159.39,41.93 158.79,42.39 158.23,42.89 157.73,43.42 157.28,44.00 156.89,44.63 156.57,45.30 156.31,46.02 156.14,46.81" fill="#4f6b3a"/><polygon points="157.24,48.10 157.18,48.46 157.00,48.77 156.72,49.00 156.38,49.12 156.02,49.12 155.68,49.00 155.40,48.77 155.22,48.46 155.16,48.10 155.22,47.74 155.40,47.43 155.68,47.20 156.02,47.08 156.38,47.08 156.72,47.20 157.00,47.43 157.18,47.74" fill="#b3332b"/><polyline points="93.40,48.10 85.94,39.09" fill="none" stroke="#4f6b3a" stroke-width="0.9" stroke-linecap="round" stroke-linejoin="round"/><polygon points="93.40,47.78 93.46,46.81 93.29,46.02 93.03,45.30 92.71,44.63 92.32,44.00 91.87,43.42 91.37,42.89 90.81,42.39 90.21,41.93 89.57,41.50 88.88,41.11 88.09,40.79 88.18,41.64 88.38,42.41 88.62,43.14 88.90,43.84 89.24,44.51 89.62,45.14 90.05,45.73 90.55,46.27 91.11,46.76 91.74,47.20 92.46,47.57" fill="#4f6b3a"/><polygon points="93.40,47.78 94.03,47.04 94.37,46.31 94.61,45.58 94.76,44.85 94.82,44.12 94.82,43.39 94.74,42.66 94.60,41.93 94.40,41.19 94.15,40.46 93.84,39.73 93.40,39.00 92.96,39.73 92.65,40.46 92.40,41.19 92.20,41.93 92.06,42.66 91.98,43.39 91.98,44.12 92.04,44.85 92.19,45.58 92.43,46.31 92.77,47.04" fill="#2b8796"/><polygon points="93.40,47.78 94.34,47.57 95.06,47.20 95.69,46.76 96.25,46.27 96.75,45.73 97.18,45.14 97.56,44.51 97.90,43.84 98.18,43.14 98.42,42.41 98.62,41.64 98.71,40.79 97.92,41.11 97.23,41.50 96.59,41.93 95.99,42.39 95.43,42.89 94.93,43.42 94.48,44.00 94.09,44.63 93.77,45.30 93.51,46.02 93.34,46.81" fill="#4f6b3a"/><polygon points="94.44,48.10 94.38,48.46 94.20,48.77 93.92,49.00 93.58,49.12 93.22,49.12 92.88,49.00 92.60,48.77 92.42,48.46 92.36,48.10 92.42,47.74 92.60,47.43 92.88,47.20 93.22,47.08 93.58,47.08 93.92,47.20 94.20,47.43 94.38,47.74" fill="#b3332b"/><polyline points="198.60,48.10 189.04,43.22" fill="none" stroke="#4f6b3a" stroke-width="0.9" stroke-linecap="round" stroke-linejoin="round"/><polygon points="198.60,47.78 198.66,46.81 198.49,46.02 198.23,45.30 197.91,44.63 197.52,44.00 197.07,43.42 196.57,42.89 196.01,42.39 195.41,41.93 194.77,41.50 194.08,41.11 193.29,40.79 193.38,41.64 193.58,42.41 193.82,43.14 194.10,43.84 194.44,44.51 194.82,45.14 195.25,45.73 195.75,46.27 196.31,46.76 196.94,47.20 197.66,47.57" fill="#4f6b3a"/><polygon points="198.60,47.78 199.23,47.04 199.57,46.31 199.81,45.58 199.96,44.85 200.02,44.12 200.02,43.39 199.94,42.66 199.80,41.93 199.60,41.19 199.35,40.46 199.04,39.73 198.60,39.00 198.16,39.73 197.85,40.46 197.60,41.19 197.40,41.93 197.26,42.66 197.18,43.39 197.18,44.12 197.24,44.85 197.39,45.58 197.63,46.31 197.97,47.04" fill="#2b8796"/><polygon points="198.60,47.78 199.54,47.57 200.26,47.20 200.89,46.76 201.45,46.27 201.95,45.73 202.38,45.14 202.76,44.51 203.10,43.84 203.38,43.14 203.62,42.41 203.82,41.64 203.91,40.79 203.12,41.11 202.43,41.50 201.79,41.93 201.19,42.39 200.63,42.89 200.13,43.42 199.68,44.00 199.29,44.63 198.97,45.30 198.71,46.02 198.54,46.81" fill="#4f6b3a"/><polygon points="199.64,48.10 199.58,48.46 199.40,48.77 199.12,49.00 198.78,49.12 198.42,49.12 198.08,49.00 197.80,48.77 197.62,48.46 197.56,48.10 197.62,47.74 197.80,47.43 198.08,47.20 198.42,47.08 198.78,47.08 199.12,47.20 199.40,47.43 199.58,47.74" fill="#b3332b"/><polyline points="73.40,48.10 64.25,43.21" fill="none" stroke="#4f6b3a" stroke-width="0.9" stroke-linecap="round" stroke-linejoin="round"/><polygon points="73.40,47.78 73.46,46.81 73.29,46.02 73.03,45.30 72.71,44.63 72.32,44.00 71.87,43.42 71.37,42.89 70.81,42.39 70.21,41.93 69.57,41.50 68.88,41.11 68.09,40.79 68.18,41.64 68.38,42.41 68.62,43.14 68.90,43.84 69.24,44.51 69.62,45.14 70.05,45.73 70.55,46.27 71.11,46.76 71.74,47.20 72.46,47.57" fill="#4f6b3a"/><polygon points="73.40,47.78 74.03,47.04 74.37,46.31 74.61,45.58 74.76,44.85 74.82,44.12 74.82,43.39 74.74,42.66 74.60,41.93 74.40,41.19 74.15,40.46 73.84,39.73 73.40,39.00 72.96,39.73 72.65,40.46 72.40,41.19 72.20,41.93 72.06,42.66 71.98,43.39 71.98,44.12 72.04,44.85 72.19,45.58 72.43,46.31 72.77,47.04" fill="#2b8796"/><polygon points="73.40,47.78 74.34,47.57 75.06,47.20 75.69,46.76 76.25,46.27 76.75,45.73 77.18,45.14 77.56,44.51 77.90,43.84 78.18,43.14 78.42,42.41 78.62,41.64 78.71,40.79 77.92,41.11 77.23,41.50 76.59,41.93 75.99,42.39 75.43,42.89 74.93,43.42 74.48,44.00 74.09,44.63 73.77,45.30 73.51,46.02 73.34,46.81" fill="#4f6b3a"/><polygon points="74.44,48.10 74.38,48.46 74.20,48.77 73.92,49.00 73.58,49.12 73.22,49.12 72.88,49.00 72.60,48.77 72.42,48.46 72.36,48.10 72.42,47.74 72.60,47.43 72.88,47.20 73.22,47.08 73.58,47.08 73.92,47.20 74.20,47.43 74.38,47.74" fill="#b3332b"/><polyline points="122.60,19.70 124.78,24.16" fill="none" stroke="#4f6b3a" stroke-width="0.9" stroke-linecap="round" stroke-linejoin="round"/><polygon points="122.60,19.38 122.66,18.41 122.49,17.62 122.23,16.90 121.91,16.23 121.52,15.60 121.07,15.02 120.57,14.49 120.01,13.99 119.41,13.53 118.77,13.10 118.08,12.71 117.29,12.39 117.38,13.24 117.58,14.01 117.82,14.74 118.10,15.44 118.44,16.11 118.82,16.74 119.25,17.33 119.75,17.87 120.31,18.36 120.94,18.80 121.66,19.17" fill="#4f6b3a"/><polygon points="122.60,19.38 123.23,18.64 123.57,17.91 123.81,17.18 123.96,16.45 124.02,15.72 124.02,14.99 123.94,14.26 123.80,13.53 123.60,12.79 123.35,12.06 123.04,11.33 122.60,10.60 122.16,11.33 121.85,12.06 121.60,12.79 121.40,13.53 121.26,14.26 121.18,14.99 121.18,15.72 121.24,16.45 121.39,17.18 121.63,17.91 121.97,18.64" fill="#2b8796"/><polygon points="122.60,19.38 123.54,19.17 124.26,18.80 124.89,18.36 125.45,17.87 125.95,17.33 126.38,16.74 126.76,16.11 127.10,15.44 127.38,14.74 127.62,14.01 127.82,13.24 127.91,12.39 127.12,12.71 126.43,13.10 125.79,13.53 125.19,13.99 124.63,14.49 124.13,15.02 123.68,15.60 123.29,16.23 122.97,16.90 122.71,17.62 122.54,18.41" fill="#4f6b3a"/><polygon points="123.64,19.70 123.58,20.06 123.40,20.37 123.12,20.60 122.78,20.72 122.42,20.72 122.08,20.60 121.80,20.37 121.62,20.06 121.56,19.70 121.62,19.34 121.80,19.03 122.08,18.80 122.42,18.68 122.78,18.68 123.12,18.80 123.40,19.03 123.58,19.34" fill="#b3332b"/><polyline points="32.60,48.50 40.48,40.31" fill="none" stroke="#4f6b3a" stroke-width="0.9" stroke-linecap="round" stroke-linejoin="round"/><polygon points="32.60,48.18 32.66,47.21 32.49,46.42 32.23,45.70 31.91,45.03 31.52,44.40 31.07,43.82 30.57,43.29 30.01,42.79 29.41,42.33 28.77,41.90 28.08,41.51 27.29,41.19 27.38,42.04 27.58,42.81 27.82,43.54 28.10,44.24 28.44,44.91 28.82,45.54 29.25,46.13 29.75,46.67 30.31,47.16 30.94,47.60 31.66,47.97" fill="#4f6b3a"/><polygon points="32.60,48.18 33.23,47.44 33.57,46.71 33.81,45.98 33.96,45.25 34.02,44.52 34.02,43.79 33.94,43.06 33.80,42.33 33.60,41.59 33.35,40.86 33.04,40.13 32.60,39.40 32.16,40.13 31.85,40.86 31.60,41.59 31.40,42.33 31.26,43.06 31.18,43.79 31.18,44.52 31.24,45.25 31.39,45.98 31.63,46.71 31.97,47.44" fill="#2b8796"/><polygon points="32.60,48.18 33.54,47.97 34.26,47.60 34.89,47.16 35.45,46.67 35.95,46.13 36.38,45.54 36.76,44.91 37.10,44.24 37.38,43.54 37.62,42.81 37.82,42.04 37.91,41.19 37.12,41.51 36.43,41.90 35.79,42.33 35.19,42.79 34.63,43.29 34.13,43.82 33.68,44.40 33.29,45.03 32.97,45.70 32.71,46.42 32.54,47.21" fill="#4f6b3a"/><polygon points="33.64,48.50 33.58,48.86 33.40,49.17 33.12,49.40 32.78,49.52 32.42,49.52 32.08,49.40 31.80,49.17 31.62,48.86 31.56,48.50 31.62,48.14 31.80,47.83 32.08,47.60 32.42,47.48 32.78,47.48 33.12,47.60 33.40,47.83 33.58,48.14" fill="#b3332b"/><polyline points="217.80,48.50 224.85,39.48" fill="none" stroke="#4f6b3a" stroke-width="0.9" stroke-linecap="round" stroke-linejoin="round"/><polygon points="217.80,48.18 217.86,47.21 217.69,46.42 217.43,45.70 217.11,45.03 216.72,44.40 216.27,43.82 215.77,43.29 215.21,42.79 214.61,42.33 213.97,41.90 213.28,41.51 212.49,41.19 212.58,42.04 212.78,42.81 213.02,43.54 213.30,44.24 213.64,44.91 214.02,45.54 214.45,46.13 214.95,46.67 215.51,47.16 216.14,47.60 216.86,47.97" fill="#4f6b3a"/><polygon points="217.80,48.18 218.43,47.44 218.77,46.71 219.01,45.98 219.16,45.25 219.22,44.52 219.22,43.79 219.14,43.06 219.00,42.33 218.80,41.59 218.55,40.86 218.24,40.13 217.80,39.40 217.36,40.13 217.05,40.86 216.80,41.59 216.60,42.33 216.46,43.06 216.38,43.79 216.38,44.52 216.44,45.25 216.59,45.98 216.83,46.71 217.17,47.44" fill="#2b8796"/><polygon points="217.80,48.18 218.74,47.97 219.46,47.60 220.09,47.16 220.65,46.67 221.15,46.13 221.58,45.54 221.96,44.91 222.30,44.24 222.58,43.54 222.82,42.81 223.02,42.04 223.11,41.19 222.32,41.51 221.63,41.90 220.99,42.33 220.39,42.79 219.83,43.29 219.33,43.82 218.88,44.40 218.49,45.03 218.17,45.70 217.91,46.42 217.74,47.21" fill="#4f6b3a"/><polygon points="218.84,48.50 218.78,48.86 218.60,49.17 218.32,49.40 217.98,49.52 217.62,49.52 217.28,49.40 217.00,49.17 216.82,48.86 216.76,48.50 216.82,48.14 217.00,47.83 217.28,47.60 217.62,47.48 217.98,47.48 218.32,47.60 218.60,47.83 218.78,48.14" fill="#b3332b"/><polyline points="96.60,18.32 95.30,23.39" fill="none" stroke="#4f6b3a" stroke-width="0.9" stroke-linecap="round" stroke-linejoin="round"/><polygon points="96.60,18.01 96.65,17.09 96.49,16.34 96.25,15.65 95.94,15.01 95.57,14.41 95.14,13.86 94.66,13.35 94.13,12.88 93.56,12.44 92.95,12.03 92.29,11.65 91.53,11.35 91.63,12.15 91.81,12.89 92.04,13.59 92.31,14.26 92.63,14.90 92.99,15.50 93.41,16.06 93.88,16.57 94.42,17.04 95.02,17.46 95.70,17.82" fill="#4f6b3a"/><polygon points="96.60,18.01 97.20,17.31 97.53,16.62 97.75,15.92 97.89,15.22 97.96,14.52 97.95,13.82 97.88,13.13 97.74,12.43 97.55,11.73 97.31,11.04 97.02,10.34 96.60,9.64 96.18,10.34 95.89,11.04 95.65,11.73 95.46,12.43 95.32,13.13 95.25,13.82 95.24,14.52 95.31,15.22 95.45,15.92 95.67,16.62 96.00,17.31" fill="#2b8796"/><polygon points="96.60,18.01 97.50,17.82 98.18,17.46 98.78,17.04 99.32,16.57 99.79,16.06 100.21,15.50 100.57,14.90 100.89,14.26 101.16,13.59 101.39,12.89 101.57,12.15 101.67,11.35 100.91,11.65 100.25,12.03 99.64,12.44 99.07,12.88 98.54,13.35 98.06,13.86 97.63,14.41 97.26,15.01 96.95,15.65 96.71,16.34 96.55,17.09" fill="#4f6b3a"/><polygon points="97.60,18.32 97.54,18.66 97.37,18.96 97.10,19.19 96.77,19.30 96.43,19.30 96.10,19.19 95.83,18.96 95.66,18.66 95.60,18.32 95.66,17.98 95.83,17.68 96.10,17.45 96.43,17.34 96.77,17.34 97.10,17.45 97.37,17.68 97.54,17.98" fill="#b3332b"/><polyline points="14.60,49.52 6.62,52.33" fill="none" stroke="#4f6b3a" stroke-width="0.9" stroke-linecap="round" stroke-linejoin="round"/><polygon points="14.60,49.21 14.65,48.29 14.49,47.54 14.25,46.85 13.94,46.21 13.57,45.61 13.14,45.06 12.66,44.55 12.13,44.08 11.56,43.64 10.95,43.23 10.29,42.85 9.53,42.55 9.63,43.35 9.81,44.09 10.04,44.79 10.31,45.46 10.63,46.10 10.99,46.70 11.41,47.26 11.88,47.77 12.42,48.24 13.02,48.66 13.70,49.02" fill="#4f6b3a"/><polygon points="14.60,49.21 15.20,48.51 15.53,47.82 15.75,47.12 15.89,46.42 15.96,45.72 15.95,45.03 15.88,44.33 15.74,43.63 15.55,42.93 15.31,42.24 15.02,41.54 14.60,40.84 14.18,41.54 13.89,42.24 13.65,42.93 13.46,43.63 13.32,44.33 13.25,45.03 13.24,45.72 13.31,46.42 13.45,47.12 13.67,47.82 14.00,48.51" fill="#2b8796"/><polygon points="14.60,49.21 15.50,49.02 16.18,48.66 16.78,48.24 17.32,47.77 17.79,47.26 18.21,46.70 18.57,46.10 18.89,45.46 19.16,44.79 19.39,44.09 19.57,43.35 19.67,42.55 18.91,42.85 18.25,43.23 17.64,43.64 17.07,44.08 16.54,44.55 16.06,45.06 15.63,45.61 15.26,46.21 14.95,46.85 14.71,47.54 14.55,48.29" fill="#4f6b3a"/><polygon points="15.60,49.52 15.54,49.86 15.37,50.16 15.10,50.39 14.77,50.50 14.43,50.50 14.10,50.39 13.83,50.16 13.66,49.86 13.60,49.52 13.66,49.18 13.83,48.88 14.10,48.65 14.43,48.54 14.77,48.54 15.10,48.65 15.37,48.88 15.54,49.18" fill="#b3332b"/><polygon points="235.80,49.21 235.85,48.29 235.69,47.54 235.45,46.85 235.14,46.21 234.77,45.61 234.34,45.06 233.86,44.55 233.33,44.08 232.76,43.64 232.15,43.23 231.49,42.85 230.73,42.55 230.83,43.35 231.01,44.09 231.24,44.79 231.51,45.46 231.83,46.10 232.19,46.70 232.61,47.26 233.08,47.77 233.62,48.24 234.22,48.66 234.90,49.02" fill="#4f6b3a"/><polygon points="235.80,49.21 236.40,48.51 236.73,47.82 236.95,47.12 237.09,46.42 237.16,45.72 237.15,45.03 237.08,44.33 236.94,43.63 236.75,42.93 236.51,42.24 236.22,41.54 235.80,40.84 235.38,41.54 235.09,42.24 234.85,42.93 234.66,43.63 234.52,44.33 234.45,45.03 234.44,45.72 234.51,46.42 234.65,47.12 234.87,47.82 235.20,48.51" fill="#2b8796"/><polygon points="235.80,49.21 236.70,49.02 237.38,48.66 237.98,48.24 238.52,47.77 238.99,47.26 239.41,46.70 239.77,46.10 240.09,45.46 240.36,44.79 240.59,44.09 240.77,43.35 240.87,42.55 240.11,42.85 239.45,43.23 238.84,43.64 238.27,44.08 237.74,44.55 237.26,45.06 236.83,45.61 236.46,46.21 236.15,46.85 235.91,47.54 235.75,48.29" fill="#4f6b3a"/><polygon points="236.80,49.52 236.74,49.86 236.57,50.16 236.30,50.39 235.97,50.50 235.63,50.50 235.30,50.39 235.03,50.16 234.86,49.86 234.80,49.52 234.86,49.18 235.03,48.88 235.30,48.65 235.63,48.54 235.97,48.54 236.30,48.65 236.57,48.88 236.74,49.18" fill="#b3332b"/><polyline points="219.40,17.68 216.32,20.89" fill="none" stroke="#4f6b3a" stroke-width="0.9" stroke-linecap="round" stroke-linejoin="round"/><polygon points="219.40,17.39 219.45,16.53 219.30,15.83 219.07,15.18 218.78,14.58 218.44,14.02 218.04,13.51 217.59,13.03 217.09,12.59 216.56,12.17 215.98,11.79 215.37,11.44 214.66,11.16 214.75,11.91 214.92,12.60 215.14,13.26 215.39,13.88 215.68,14.48 216.02,15.04 216.41,15.56 216.86,16.04 217.36,16.48 217.92,16.87 218.56,17.21" fill="#4f6b3a"/><polygon points="219.40,17.39 219.96,16.74 220.27,16.09 220.48,15.43 220.61,14.78 220.67,14.13 220.66,13.47 220.60,12.82 220.47,12.17 220.29,11.52 220.07,10.86 219.79,10.21 219.40,9.56 219.01,10.21 218.73,10.86 218.51,11.52 218.33,12.17 218.20,12.82 218.14,13.47 218.13,14.13 218.19,14.78 218.32,15.43 218.53,16.09 218.84,16.74" fill="#2b8796"/><polygon points="219.40,17.39 220.24,17.21 220.88,16.87 221.44,16.48 221.94,16.04 222.39,15.56 222.78,15.04 223.12,14.48 223.41,13.88 223.66,13.26 223.88,12.60 224.05,11.91 224.14,11.16 223.43,11.44 222.82,11.79 222.24,12.17 221.71,12.59 221.21,13.03 220.76,13.51 220.36,14.02 220.02,14.58 219.73,15.18 219.50,15.83 219.35,16.53" fill="#4f6b3a"/><polygon points="220.40,17.68 220.34,18.02 220.17,18.32 219.90,18.55 219.57,18.66 219.23,18.66 218.90,18.55 218.63,18.32 218.46,18.02 218.40,17.68 218.46,17.34 218.63,17.04 218.90,16.81 219.23,16.70 219.57,16.70 219.90,16.81 220.17,17.04 220.34,17.34" fill="#b3332b"/><polyline points="151.00,29.21 151.00,33.40" fill="none" stroke="#4f6b3a" stroke-width="0.9" stroke-linecap="round" stroke-linejoin="round"/><polygon points="151.00,28.93 151.05,28.09 150.90,27.40 150.68,26.76 150.40,26.17 150.06,25.63 149.66,25.12 149.22,24.65 148.74,24.22 148.21,23.81 147.65,23.44 147.04,23.09 146.35,22.81 146.43,23.55 146.60,24.23 146.82,24.87 147.06,25.49 147.35,26.07 147.69,26.62 148.07,27.14 148.50,27.61 149.00,28.04 149.55,28.42 150.18,28.75" fill="#4f6b3a"/><polygon points="151.00,28.93 151.55,28.29 151.85,27.65 152.06,27.01 152.19,26.37 152.25,25.73 152.24,25.09 152.17,24.45 152.05,23.81 151.88,23.17 151.65,22.53 151.38,21.89 151.00,21.25 150.62,21.89 150.35,22.53 150.12,23.17 149.95,23.81 149.83,24.45 149.76,25.09 149.75,25.73 149.81,26.37 149.94,27.01 150.15,27.65 150.45,28.29" fill="#2b8796"/><polygon points="151.00,28.93 151.82,28.75 152.45,28.42 153.00,28.04 153.50,27.61 153.93,27.14 154.31,26.62 154.65,26.07 154.94,25.49 155.18,24.87 155.40,24.23 155.57,23.55 155.65,22.81 154.96,23.09 154.35,23.44 153.79,23.81 153.26,24.22 152.78,24.65 152.34,25.12 151.94,25.63 151.60,26.17 151.32,26.76 151.10,27.40 150.95,28.09" fill="#4f6b3a"/><polygon points="152.00,29.21 151.94,29.56 151.77,29.86 151.50,30.08 151.17,30.20 150.83,30.20 150.50,30.08 150.23,29.86 150.06,29.56 150.00,29.21 150.06,28.87 150.23,28.57 150.50,28.35 150.83,28.23 151.17,28.23 151.50,28.35 151.77,28.57 151.94,28.87" fill="#b3332b"/><polyline points="187.40,17.57 181.81,18.68" fill="none" stroke="#4f6b3a" stroke-width="0.9" stroke-linecap="round" stroke-linejoin="round"/><polygon points="187.40,17.29 187.45,16.46 187.30,15.78 187.08,15.15 186.80,14.57 186.47,14.03 186.08,13.53 185.64,13.07 185.16,12.64 184.64,12.24 184.09,11.87 183.49,11.53 182.81,11.25 182.89,11.98 183.06,12.65 183.27,13.28 183.51,13.89 183.80,14.47 184.13,15.01 184.51,15.52 184.93,15.99 185.42,16.41 185.97,16.79 186.59,17.12" fill="#4f6b3a"/><polygon points="187.40,17.29 187.94,16.66 188.24,16.03 188.44,15.39 188.57,14.76 188.63,14.13 188.63,13.50 188.56,12.86 188.44,12.23 188.27,11.60 188.05,10.97 187.78,10.33 187.40,9.70 187.02,10.33 186.75,10.97 186.53,11.60 186.36,12.23 186.24,12.86 186.17,13.50 186.17,14.13 186.23,14.76 186.36,15.39 186.56,16.03 186.86,16.66" fill="#2b8796"/><polygon points="187.40,17.29 188.21,17.12 188.83,16.79 189.38,16.41 189.87,15.99 190.29,15.52 190.67,15.01 191.00,14.47 191.29,13.89 191.53,13.28 191.74,12.65 191.91,11.98 191.99,11.25 191.31,11.53 190.71,11.87 190.16,12.24 189.64,12.64 189.16,13.07 188.72,13.53 188.33,14.03 188.00,14.57 187.72,15.15 187.50,15.78 187.35,16.46" fill="#4f6b3a"/><polygon points="188.40,17.57 188.34,17.92 188.17,18.22 187.90,18.44 187.57,18.56 187.23,18.56 186.90,18.44 186.63,18.22 186.46,17.92 186.40,17.57 186.46,17.23 186.63,16.93 186.90,16.71 187.23,16.59 187.57,16.59 187.90,16.71 188.17,16.93 188.34,17.23" fill="#b3332b"/><polyline points="62.20,17.47 57.03,19.55" fill="none" stroke="#4f6b3a" stroke-width="0.9" stroke-linecap="round" stroke-linejoin="round"/><polygon points="62.20,17.20 62.25,16.39 62.11,15.73 61.89,15.12 61.62,14.56 61.29,14.03 60.92,13.55 60.50,13.10 60.03,12.68 59.52,12.29 58.98,11.93 58.40,11.60 57.74,11.34 57.82,12.05 57.99,12.69 58.19,13.31 58.43,13.90 58.70,14.46 59.02,14.99 59.39,15.48 59.81,15.94 60.28,16.35 60.81,16.72 61.41,17.03" fill="#4f6b3a"/><polygon points="62.20,17.20 62.72,16.59 63.01,15.97 63.21,15.36 63.34,14.75 63.40,14.13 63.39,13.52 63.33,12.90 63.21,12.29 63.04,11.68 62.83,11.06 62.57,10.45 62.20,9.83 61.83,10.45 61.57,11.06 61.36,11.68 61.19,12.29 61.07,12.90 61.01,13.52 61.00,14.13 61.06,14.75 61.19,15.36 61.39,15.97 61.68,16.59" fill="#2b8796"/><polygon points="62.20,17.20 62.99,17.03 63.59,16.72 64.12,16.35 64.59,15.94 65.01,15.48 65.38,14.99 65.70,14.46 65.97,13.90 66.21,13.31 66.41,12.69 66.58,12.05 66.66,11.34 66.00,11.60 65.42,11.93 64.88,12.29 64.37,12.68 63.90,13.10 63.48,13.55 63.11,14.03 62.78,14.56 62.51,15.12 62.29,15.73 62.15,16.39" fill="#4f6b3a"/><polygon points="63.20,17.47 63.14,17.82 62.97,18.12 62.70,18.34 62.37,18.46 62.03,18.46 61.70,18.34 61.43,18.12 61.26,17.82 61.20,17.47 61.26,17.13 61.43,16.83 61.70,16.61 62.03,16.49 62.37,16.49 62.70,16.61 62.97,16.83 63.14,17.13" fill="#b3332b"/><polyline points="13.80,32.17 17.75,34.40" fill="none" stroke="#4f6b3a" stroke-width="0.9" stroke-linecap="round" stroke-linejoin="round"/><polygon points="13.80,31.91 13.84,31.13 13.71,30.48 13.50,29.89 13.24,29.35 12.92,28.84 12.56,28.37 12.15,27.93 11.70,27.53 11.21,27.15 10.68,26.80 10.12,26.48 9.48,26.22 9.55,26.91 9.71,27.54 9.91,28.14 10.14,28.71 10.41,29.25 10.72,29.76 11.08,30.24 11.48,30.68 11.94,31.08 12.45,31.44 13.03,31.74" fill="#4f6b3a"/><polygon points="13.80,31.91 14.31,31.31 14.59,30.72 14.78,30.12 14.90,29.53 14.96,28.93 14.95,28.34 14.89,27.74 14.78,27.15 14.61,26.55 14.41,25.96 14.15,25.36 13.80,24.77 13.45,25.36 13.19,25.96 12.99,26.55 12.82,27.15 12.71,27.74 12.65,28.34 12.64,28.93 12.70,29.53 12.82,30.12 13.01,30.72 13.29,31.31" fill="#2b8796"/><polygon points="13.80,31.91 14.57,31.74 15.15,31.44 15.66,31.08 16.12,30.68 16.52,30.24 16.88,29.76 17.19,29.25 17.46,28.71 17.69,28.14 17.89,27.54 18.05,26.91 18.12,26.22 17.48,26.48 16.92,26.80 16.39,27.15 15.90,27.53 15.45,27.93 15.04,28.37 14.68,28.84 14.36,29.35 14.10,29.89 13.89,30.48 13.76,31.13" fill="#4f6b3a"/><polygon points="14.80,32.17 14.74,32.52 14.57,32.82 14.30,33.04 13.97,33.16 13.63,33.16 13.30,33.04 13.03,32.82 12.86,32.52 12.80,32.17 12.86,31.83 13.03,31.53 13.30,31.31 13.63,31.19 13.97,31.19 14.30,31.31 14.57,31.53 14.74,31.83" fill="#b3332b"/><polyline points="236.60,32.17 232.65,34.40" fill="none" stroke="#4f6b3a" stroke-width="0.9" stroke-linecap="round" stroke-linejoin="round"/><polygon points="236.60,31.91 236.64,31.13 236.51,30.48 236.30,29.89 236.04,29.35 235.72,28.84 235.36,28.37 234.95,27.93 234.50,27.53 234.01,27.15 233.48,26.80 232.92,26.48 232.28,26.22 232.35,26.91 232.51,27.54 232.71,28.14 232.94,28.71 233.21,29.25 233.52,29.76 233.88,30.24 234.28,30.68 234.74,31.08 235.25,31.44 235.83,31.74" fill="#4f6b3a"/><polygon points="236.60,31.91 237.11,31.31 237.39,30.72 237.58,30.12 237.70,29.53 237.76,28.93 237.75,28.34 237.69,27.74 237.58,27.15 237.41,26.55 237.21,25.96 236.95,25.36 236.60,24.77 236.25,25.36 235.99,25.96 235.79,26.55 235.62,27.15 235.51,27.74 235.45,28.34 235.44,28.93 235.50,29.53 235.62,30.12 235.81,30.72 236.09,31.31" fill="#2b8796"/><polygon points="236.60,31.91 237.37,31.74 237.95,31.44 238.46,31.08 238.92,30.68 239.32,30.24 239.68,29.76 239.99,29.25 240.26,28.71 240.49,28.14 240.69,27.54 240.85,26.91 240.92,26.22 240.28,26.48 239.72,26.80 239.19,27.15 238.70,27.53 238.25,27.93 237.84,28.37 237.48,28.84 237.16,29.35 236.90,29.89 236.69,30.48 236.56,31.13" fill="#4f6b3a"/><polygon points="237.60,32.17 237.54,32.52 237.37,32.82 237.10,33.04 236.77,33.16 236.43,33.16 236.10,33.04 235.83,32.82 235.66,32.52 235.60,32.17 235.66,31.83 235.83,31.53 236.10,31.31 236.43,31.19 236.77,31.19 237.10,31.31 237.37,31.53 237.54,31.83" fill="#b3332b"/></svg>